<svg width="383" height="170" viewBox="0 0 383 170" fill="none" xmlns="http://www.w3.org/2000/svg">
<path d="M181.461 5.82641C187.669 2.22355 195.331 2.22354 201.539 5.82641L216.411 14.4575C220.866 17.0429 226.146 17.81 231.153 16.5989L255.56 10.6943C263.707 8.72353 272.157 12.5 276.123 19.8839V19.8839C279.444 26.069 285.993 29.8284 293.009 29.5783L320.156 28.6107C326.526 28.3836 330.982 34.8425 328.507 40.717V40.717C326.305 45.9431 329.597 51.8478 335.199 52.724L353.322 55.5581C360.423 56.6686 362.389 65.9667 356.345 69.8568V69.8568C351.054 73.2621 351.749 81.2039 357.55 83.6397L358.905 84.2085C366.443 87.3737 365.717 98.2847 357.826 100.423L349.645 102.641C344.004 104.17 342.022 111.155 346.019 115.419V115.419C350.514 120.214 347.374 128.075 340.812 128.454L315.883 129.893C309.883 130.239 305.099 135.034 304.766 141.035V141.035C304.386 147.904 298.24 152.997 291.42 152.095L263.183 148.36C257.25 147.576 251.278 149.489 246.906 153.574L240.425 159.63C234.849 164.84 226.794 166.423 219.661 163.71L198.61 155.704C194.03 153.962 188.97 153.962 184.39 155.704L163.339 163.71C156.206 166.423 148.151 164.84 142.575 159.63L136.094 153.574C131.722 149.489 125.75 147.576 119.817 148.36L91.58 152.095C84.7599 152.997 78.6143 147.904 78.2338 141.035V141.035C77.9014 135.034 73.1174 130.239 67.1174 129.893L42.1878 128.454C35.6265 128.075 32.4863 120.214 36.9811 115.419V115.419C40.9781 111.155 38.9958 104.17 33.3548 102.641L25.174 100.423C17.2827 98.2847 16.5569 87.3737 24.0953 84.2085L25.4501 83.6397C31.2515 81.2039 31.9456 73.2621 26.6548 69.8568V69.8568C20.6108 65.9667 22.5769 56.6686 29.6782 55.5581L47.8006 52.724C53.4035 51.8478 56.6946 45.9431 54.4929 40.717V40.717C52.0181 34.8425 56.4736 28.3836 62.844 28.6107L89.9907 29.5783C97.007 29.8284 103.556 26.069 106.877 19.8839V19.8839C110.843 12.5 119.293 8.72353 127.44 10.6943L151.847 16.5989C156.854 17.81 162.134 17.0429 166.589 14.4575L181.461 5.82641Z" fill="#FF7262"/>
<path d="M88.2965 84.18C87.3365 84.18 86.4965 83.9733 85.7765 83.56C85.0565 83.1333 84.5365 82.5467 84.2165 81.8L85.3965 81.14C85.6365 81.7533 86.0298 82.22 86.5765 82.54C87.1232 82.8467 87.7698 83 88.5165 83C89.2098 83 89.8098 82.8933 90.3165 82.68C90.8365 82.4533 91.2565 82.1267 91.5765 81.7C91.9098 81.2733 92.1165 80.76 92.1965 80.16C92.3298 79.3067 92.1698 78.6067 91.7165 78.06C91.2632 77.5 90.5565 77.22 89.5965 77.22H88.4365L88.6365 76.1H89.7765C90.2698 76.1 90.7165 75.9867 91.1165 75.76C91.5298 75.52 91.8698 75.2067 92.1365 74.82C92.4165 74.4333 92.5965 74 92.6765 73.52C92.7565 72.9733 92.7232 72.5 92.5765 72.1C92.4298 71.7 92.1765 71.3933 91.8165 71.18C91.4565 70.9533 90.9898 70.84 90.4165 70.84C89.7632 70.84 89.1365 70.9933 88.5365 71.3C87.9365 71.5933 87.4565 72.0267 87.0965 72.6L86.1565 71.92C86.6632 71.2133 87.2832 70.6533 88.0165 70.24C88.7632 69.8267 89.5965 69.62 90.5165 69.62C91.3432 69.62 92.0365 69.78 92.5965 70.1C93.1565 70.4067 93.5698 70.8467 93.8365 71.42C94.1032 71.9933 94.1765 72.66 94.0565 73.42C93.9498 74.1133 93.6698 74.7467 93.2165 75.32C92.7765 75.8933 92.2098 76.32 91.5165 76.6C92.3165 76.84 92.8965 77.2933 93.2565 77.96C93.6165 78.6133 93.7298 79.3867 93.5965 80.28C93.4765 81.08 93.1765 81.7733 92.6965 82.36C92.2298 82.9467 91.6165 83.4 90.8565 83.72C90.1098 84.0267 89.2565 84.18 88.2965 84.18ZM99.1512 84.2C98.3912 84.2 97.7312 84 97.1712 83.6C96.6112 83.2 96.1845 82.6667 95.8912 82C95.5978 81.3333 95.4512 80.6133 95.4512 79.84C95.4512 79.0133 95.6045 78.22 95.9112 77.46C96.2312 76.6867 96.6578 76 97.1912 75.4C97.7378 74.7867 98.3578 74.3 99.0512 73.94C99.7445 73.58 100.471 73.4 101.231 73.4C102.071 73.4 102.765 73.6333 103.311 74.1C103.858 74.5533 104.245 75.1067 104.471 75.76L104.951 73.58H106.311L104.471 82.22C104.458 82.26 104.445 82.3067 104.431 82.36C104.431 82.4 104.431 82.44 104.431 82.48C104.431 82.6933 104.558 82.8 104.811 82.8L104.551 84C104.445 84.0133 104.345 84.0267 104.251 84.04C104.171 84.0533 104.091 84.06 104.011 84.06C103.705 84.0467 103.471 83.9667 103.311 83.82C103.165 83.66 103.091 83.4733 103.091 83.26C103.091 83.18 103.098 83.0933 103.111 83C103.125 82.9067 103.145 82.78 103.171 82.62C103.211 82.46 103.258 82.2467 103.311 81.98C102.778 82.66 102.131 83.2 101.371 83.6C100.625 84 99.8845 84.2 99.1512 84.2ZM99.7112 83C100.045 83 100.398 82.9333 100.771 82.8C101.158 82.6667 101.531 82.4867 101.891 82.26C102.251 82.02 102.571 81.74 102.851 81.42C103.145 81.1 103.358 80.7667 103.491 80.42L104.151 77.2C104.098 76.72 103.938 76.2867 103.671 75.9C103.405 75.5133 103.071 75.2 102.671 74.96C102.271 74.72 101.831 74.6 101.351 74.6C100.751 74.6 100.185 74.7467 99.6512 75.04C99.1178 75.3333 98.6378 75.7267 98.2112 76.22C97.7978 76.7133 97.4712 77.26 97.2312 77.86C96.9912 78.4467 96.8712 79.04 96.8712 79.64C96.8712 80.2533 96.9912 80.8133 97.2312 81.32C97.4712 81.8267 97.7978 82.2333 98.2112 82.54C98.6378 82.8467 99.1378 83 99.7112 83ZM107.244 84L109.444 73.58H110.804L109.824 78.14H111.384C112.158 77.6733 112.871 77.0467 113.524 76.26C114.178 75.46 114.818 74.5667 115.444 73.58H116.904C116.171 74.7267 115.444 75.7267 114.724 76.58C114.018 77.4333 113.271 78.1267 112.484 78.66L115.344 84H113.844L111.304 79.22H109.584L108.584 84H107.244ZM120.87 84.2C120.11 84.2 119.45 84 118.89 83.6C118.33 83.2 117.903 82.6667 117.61 82C117.317 81.3333 117.17 80.6133 117.17 79.84C117.17 79.0133 117.323 78.22 117.63 77.46C117.95 76.6867 118.377 76 118.91 75.4C119.457 74.7867 120.077 74.3 120.77 73.94C121.463 73.58 122.19 73.4 122.95 73.4C123.79 73.4 124.483 73.6333 125.03 74.1C125.577 74.5533 125.963 75.1067 126.19 75.76L126.67 73.58H128.03L126.19 82.22C126.177 82.26 126.163 82.3067 126.15 82.36C126.15 82.4 126.15 82.44 126.15 82.48C126.15 82.6933 126.277 82.8 126.53 82.8L126.27 84C126.163 84.0133 126.063 84.0267 125.97 84.04C125.89 84.0533 125.81 84.06 125.73 84.06C125.423 84.0467 125.19 83.9667 125.03 83.82C124.883 83.66 124.81 83.4733 124.81 83.26C124.81 83.18 124.817 83.0933 124.83 83C124.843 82.9067 124.863 82.78 124.89 82.62C124.93 82.46 124.977 82.2467 125.03 81.98C124.497 82.66 123.85 83.2 123.09 83.6C122.343 84 121.603 84.2 120.87 84.2ZM121.43 83C121.763 83 122.117 82.9333 122.49 82.8C122.877 82.6667 123.25 82.4867 123.61 82.26C123.97 82.02 124.29 81.74 124.57 81.42C124.863 81.1 125.077 80.7667 125.21 80.42L125.87 77.2C125.817 76.72 125.657 76.2867 125.39 75.9C125.123 75.5133 124.79 75.2 124.39 74.96C123.99 74.72 123.55 74.6 123.07 74.6C122.47 74.6 121.903 74.7467 121.37 75.04C120.837 75.3333 120.357 75.7267 119.93 76.22C119.517 76.7133 119.19 77.26 118.95 77.86C118.71 78.4467 118.59 79.04 118.59 79.64C118.59 80.2533 118.71 80.8133 118.95 81.32C119.19 81.8267 119.517 82.2333 119.93 82.54C120.357 82.8467 120.857 83 121.43 83ZM132.343 84.12C131.383 84.12 130.59 83.94 129.963 83.58C129.35 83.2067 128.93 82.6867 128.703 82.02L129.863 81.52C130.036 81.9867 130.343 82.3533 130.783 82.62C131.236 82.8733 131.803 83 132.483 83C133.296 83 133.976 82.8133 134.523 82.44C135.07 82.0667 135.396 81.5667 135.503 80.94C135.61 80.3667 135.496 79.9067 135.163 79.56C134.843 79.2133 134.343 79.0333 133.663 79.02H132.283L132.483 78.08H133.883C134.176 78.08 134.45 78.0067 134.703 77.86C134.97 77.7 135.196 77.4933 135.383 77.24C135.583 76.9867 135.703 76.7067 135.743 76.4C135.85 75.8533 135.743 75.4133 135.423 75.08C135.103 74.7333 134.583 74.56 133.863 74.56C133.29 74.56 132.783 74.68 132.343 74.92C131.903 75.1467 131.536 75.4867 131.243 75.94L130.263 75.38C130.676 74.7667 131.21 74.2867 131.863 73.94C132.53 73.5933 133.27 73.42 134.083 73.42C134.763 73.42 135.343 73.54 135.823 73.78C136.303 74.0067 136.65 74.34 136.863 74.78C137.09 75.2067 137.156 75.7267 137.063 76.34C136.996 76.8333 136.81 77.2667 136.503 77.64C136.196 78.0133 135.816 78.2933 135.363 78.48C135.95 78.6667 136.37 78.9933 136.623 79.46C136.876 79.9267 136.943 80.4733 136.823 81.1C136.716 81.7267 136.456 82.2667 136.043 82.72C135.63 83.1733 135.103 83.52 134.463 83.76C133.836 84 133.13 84.12 132.343 84.12ZM142.569 84.2C141.809 84.2 141.149 84 140.589 83.6C140.029 83.2 139.602 82.6667 139.309 82C139.016 81.3333 138.869 80.6133 138.869 79.84C138.869 79.0133 139.022 78.22 139.329 77.46C139.649 76.6867 140.076 76 140.609 75.4C141.156 74.7867 141.776 74.3 142.469 73.94C143.162 73.58 143.889 73.4 144.649 73.4C145.489 73.4 146.182 73.6333 146.729 74.1C147.276 74.5533 147.662 75.1067 147.889 75.76L148.369 73.58H149.729L147.889 82.22C147.876 82.26 147.862 82.3067 147.849 82.36C147.849 82.4 147.849 82.44 147.849 82.48C147.849 82.6933 147.976 82.8 148.229 82.8L147.969 84C147.862 84.0133 147.762 84.0267 147.669 84.04C147.589 84.0533 147.509 84.06 147.429 84.06C147.122 84.0467 146.889 83.9667 146.729 83.82C146.582 83.66 146.509 83.4733 146.509 83.26C146.509 83.18 146.516 83.0933 146.529 83C146.542 82.9067 146.562 82.78 146.589 82.62C146.629 82.46 146.676 82.2467 146.729 81.98C146.196 82.66 145.549 83.2 144.789 83.6C144.042 84 143.302 84.2 142.569 84.2ZM143.129 83C143.462 83 143.816 82.9333 144.189 82.8C144.576 82.6667 144.949 82.4867 145.309 82.26C145.669 82.02 145.989 81.74 146.269 81.42C146.562 81.1 146.776 80.7667 146.909 80.42L147.569 77.2C147.516 76.72 147.356 76.2867 147.089 75.9C146.822 75.5133 146.489 75.2 146.089 74.96C145.689 74.72 145.249 74.6 144.769 74.6C144.169 74.6 143.602 74.7467 143.069 75.04C142.536 75.3333 142.056 75.7267 141.629 76.22C141.216 76.7133 140.889 77.26 140.649 77.86C140.409 78.4467 140.289 79.04 140.289 79.64C140.289 80.2533 140.409 80.8133 140.649 81.32C140.889 81.8267 141.216 82.2333 141.629 82.54C142.056 82.8467 142.556 83 143.129 83ZM152.702 73.58H153.962L153.442 75.94C154.002 75.1533 154.662 74.5333 155.422 74.08C156.182 73.6267 156.949 73.4 157.722 73.4C158.242 73.4 158.682 73.5067 159.042 73.72C159.402 73.9333 159.669 74.24 159.842 74.64C160.029 75.04 160.116 75.5333 160.102 76.12C160.502 75.52 160.936 75.02 161.402 74.62C161.869 74.22 162.369 73.92 162.902 73.72C163.436 73.5067 163.962 73.4 164.482 73.4C165.042 73.4 165.489 73.5067 165.822 73.72C166.156 73.92 166.402 74.2133 166.562 74.6C166.722 74.9867 166.802 75.44 166.802 75.96C166.802 76.2533 166.782 76.56 166.742 76.88C166.702 77.2 166.642 77.54 166.562 77.9L165.262 84H163.902L165.122 78.18C165.256 77.5533 165.322 77.0133 165.322 76.56C165.322 75.9067 165.189 75.4267 164.922 75.12C164.656 74.8 164.262 74.64 163.742 74.64C163.249 74.64 162.762 74.7667 162.282 75.02C161.802 75.2733 161.356 75.6267 160.942 76.08C160.529 76.52 160.182 77.04 159.902 77.64L158.562 84H157.202L158.422 78.18C158.502 77.8467 158.556 77.5467 158.582 77.28C158.622 77.0133 158.642 76.76 158.642 76.52C158.642 75.88 158.509 75.4067 158.242 75.1C157.976 74.7933 157.582 74.64 157.062 74.64C156.329 74.64 155.609 74.9133 154.902 75.46C154.209 76.0067 153.642 76.7267 153.202 77.62L151.862 84H150.502L152.702 73.58ZM172.301 84.14C171.488 84.14 170.781 83.9867 170.181 83.68C169.594 83.3733 169.168 82.9133 168.901 82.3C168.648 81.6733 168.614 80.88 168.801 79.92C169.028 78.8667 169.261 77.8133 169.501 76.76C169.754 75.6933 170.001 74.6333 170.241 73.58H171.601C171.361 74.6467 171.114 75.7133 170.861 76.78C170.621 77.8467 170.388 78.9133 170.161 79.98C170.028 80.6733 170.048 81.2467 170.221 81.7C170.394 82.1533 170.674 82.4867 171.061 82.7C171.461 82.9133 171.928 83.02 172.461 83.02C173.288 83.02 173.961 82.8 174.481 82.36C175.014 81.9067 175.334 81.3 175.441 80.54C175.561 79.7667 175.414 79.16 175.001 78.72C174.588 78.28 173.854 78.06 172.801 78.06H170.081L170.261 76.96H173.141C173.808 76.96 174.388 77.0533 174.881 77.24C175.388 77.4133 175.794 77.6667 176.101 78C176.421 78.3333 176.641 78.7267 176.761 79.18C176.894 79.6333 176.921 80.14 176.841 80.7C176.721 81.46 176.454 82.1 176.041 82.62C175.628 83.1267 175.101 83.5067 174.461 83.76C173.834 84.0133 173.114 84.14 172.301 84.14ZM185.457 73.58H186.657L186.237 75.6C186.77 74.9467 187.403 74.42 188.137 74.02C188.883 73.6067 189.63 73.4 190.377 73.4C191.15 73.4 191.81 73.6067 192.357 74.02C192.917 74.42 193.343 74.9533 193.637 75.62C193.93 76.2867 194.077 77.0067 194.077 77.78C194.077 78.5933 193.923 79.3867 193.617 80.16C193.31 80.92 192.89 81.6067 192.357 82.22C191.823 82.8333 191.21 83.32 190.517 83.68C189.823 84.0267 189.083 84.2 188.297 84.2C187.47 84.2 186.783 83.9733 186.237 83.52C185.69 83.0667 185.297 82.5067 185.057 81.84L183.697 88.26H182.337L185.457 73.58ZM188.177 83C188.777 83 189.343 82.8533 189.877 82.56C190.423 82.2667 190.903 81.88 191.317 81.4C191.73 80.92 192.057 80.38 192.297 79.78C192.537 79.18 192.657 78.5867 192.657 78C192.657 77.3733 192.537 76.8067 192.297 76.3C192.07 75.78 191.743 75.3667 191.317 75.06C190.89 74.7533 190.383 74.6 189.797 74.6C189.477 74.6 189.123 74.6667 188.737 74.8C188.363 74.9333 187.99 75.1267 187.617 75.38C187.257 75.62 186.937 75.8933 186.657 76.2C186.377 76.5067 186.17 76.8333 186.037 77.18L185.357 80.38C185.45 80.8733 185.623 81.32 185.877 81.72C186.143 82.1067 186.47 82.42 186.857 82.66C187.257 82.8867 187.697 83 188.177 83ZM199.112 84.2C198.352 84.2 197.692 84 197.132 83.6C196.572 83.2 196.145 82.6667 195.852 82C195.559 81.3333 195.412 80.6133 195.412 79.84C195.412 79.0133 195.565 78.22 195.872 77.46C196.192 76.6867 196.619 76 197.152 75.4C197.699 74.7867 198.319 74.3 199.012 73.94C199.705 73.58 200.432 73.4 201.192 73.4C202.032 73.4 202.725 73.6333 203.272 74.1C203.819 74.5533 204.205 75.1067 204.432 75.76L204.912 73.58H206.272L204.432 82.22C204.419 82.26 204.405 82.3067 204.392 82.36C204.392 82.4 204.392 82.44 204.392 82.48C204.392 82.6933 204.519 82.8 204.772 82.8L204.512 84C204.405 84.0133 204.305 84.0267 204.212 84.04C204.132 84.0533 204.052 84.06 203.972 84.06C203.665 84.0467 203.432 83.9667 203.272 83.82C203.125 83.66 203.052 83.4733 203.052 83.26C203.052 83.18 203.059 83.0933 203.072 83C203.085 82.9067 203.105 82.78 203.132 82.62C203.172 82.46 203.219 82.2467 203.272 81.98C202.739 82.66 202.092 83.2 201.332 83.6C200.585 84 199.845 84.2 199.112 84.2ZM199.672 83C200.005 83 200.359 82.9333 200.732 82.8C201.119 82.6667 201.492 82.4867 201.852 82.26C202.212 82.02 202.532 81.74 202.812 81.42C203.105 81.1 203.319 80.7667 203.452 80.42L204.112 77.2C204.059 76.72 203.899 76.2867 203.632 75.9C203.365 75.5133 203.032 75.2 202.632 74.96C202.232 74.72 201.792 74.6 201.312 74.6C200.712 74.6 200.145 74.7467 199.612 75.04C199.079 75.3333 198.599 75.7267 198.172 76.22C197.759 76.7133 197.432 77.26 197.192 77.86C196.952 78.4467 196.832 79.04 196.832 79.64C196.832 80.2533 196.952 80.8133 197.192 81.32C197.432 81.8267 197.759 82.2333 198.172 82.54C198.599 82.8467 199.099 83 199.672 83ZM210.585 84.12C209.625 84.12 208.832 83.94 208.205 83.58C207.592 83.2067 207.172 82.6867 206.945 82.02L208.105 81.52C208.279 81.9867 208.585 82.3533 209.025 82.62C209.479 82.8733 210.045 83 210.725 83C211.539 83 212.219 82.8133 212.765 82.44C213.312 82.0667 213.639 81.5667 213.745 80.94C213.852 80.3667 213.739 79.9067 213.405 79.56C213.085 79.2133 212.585 79.0333 211.905 79.02H210.525L210.725 78.08H212.125C212.419 78.08 212.692 78.0067 212.945 77.86C213.212 77.7 213.439 77.4933 213.625 77.24C213.825 76.9867 213.945 76.7067 213.985 76.4C214.092 75.8533 213.985 75.4133 213.665 75.08C213.345 74.7333 212.825 74.56 212.105 74.56C211.532 74.56 211.025 74.68 210.585 74.92C210.145 75.1467 209.779 75.4867 209.485 75.94L208.505 75.38C208.919 74.7667 209.452 74.2867 210.105 73.94C210.772 73.5933 211.512 73.42 212.325 73.42C213.005 73.42 213.585 73.54 214.065 73.78C214.545 74.0067 214.892 74.34 215.105 74.78C215.332 75.2067 215.399 75.7267 215.305 76.34C215.239 76.8333 215.052 77.2667 214.745 77.64C214.439 78.0133 214.059 78.2933 213.605 78.48C214.192 78.6667 214.612 78.9933 214.865 79.46C215.119 79.9267 215.185 80.4733 215.065 81.1C214.959 81.7267 214.699 82.2667 214.285 82.72C213.872 83.1733 213.345 83.52 212.705 83.76C212.079 84 211.372 84.12 210.585 84.12ZM219.011 73.58H220.211L219.791 75.6C220.325 74.9467 220.958 74.42 221.691 74.02C222.438 73.6067 223.185 73.4 223.931 73.4C224.705 73.4 225.365 73.6067 225.911 74.02C226.471 74.42 226.898 74.9533 227.191 75.62C227.485 76.2867 227.631 77.0067 227.631 77.78C227.631 78.5933 227.478 79.3867 227.171 80.16C226.865 80.92 226.445 81.6067 225.911 82.22C225.378 82.8333 224.765 83.32 224.071 83.68C223.378 84.0267 222.638 84.2 221.851 84.2C221.025 84.2 220.338 83.9733 219.791 83.52C219.245 83.0667 218.851 82.5067 218.611 81.84L217.251 88.26H215.891L219.011 73.58ZM221.731 83C222.331 83 222.898 82.8533 223.431 82.56C223.978 82.2667 224.458 81.88 224.871 81.4C225.285 80.92 225.611 80.38 225.851 79.78C226.091 79.18 226.211 78.5867 226.211 78C226.211 77.3733 226.091 76.8067 225.851 76.3C225.625 75.78 225.298 75.3667 224.871 75.06C224.445 74.7533 223.938 74.6 223.351 74.6C223.031 74.6 222.678 74.6667 222.291 74.8C221.918 74.9333 221.545 75.1267 221.171 75.38C220.811 75.62 220.491 75.8933 220.211 76.2C219.931 76.5067 219.725 76.8333 219.591 77.18L218.911 80.38C219.005 80.8733 219.178 81.32 219.431 81.72C219.698 82.1067 220.025 82.42 220.411 82.66C220.811 82.8867 221.251 83 221.731 83ZM232.667 84.2C231.907 84.2 231.247 84 230.687 83.6C230.127 83.2 229.7 82.6667 229.407 82C229.113 81.3333 228.967 80.6133 228.967 79.84C228.967 79.0133 229.12 78.22 229.427 77.46C229.747 76.6867 230.173 76 230.707 75.4C231.253 74.7867 231.873 74.3 232.567 73.94C233.26 73.58 233.987 73.4 234.747 73.4C235.587 73.4 236.28 73.6333 236.827 74.1C237.373 74.5533 237.76 75.1067 237.987 75.76L238.467 73.58H239.827L237.987 82.22C237.973 82.26 237.96 82.3067 237.947 82.36C237.947 82.4 237.947 82.44 237.947 82.48C237.947 82.6933 238.073 82.8 238.327 82.8L238.067 84C237.96 84.0133 237.86 84.0267 237.767 84.04C237.687 84.0533 237.607 84.06 237.527 84.06C237.22 84.0467 236.987 83.9667 236.827 83.82C236.68 83.66 236.607 83.4733 236.607 83.26C236.607 83.18 236.613 83.0933 236.627 83C236.64 82.9067 236.66 82.78 236.687 82.62C236.727 82.46 236.773 82.2467 236.827 81.98C236.293 82.66 235.647 83.2 234.887 83.6C234.14 84 233.4 84.2 232.667 84.2ZM233.227 83C233.56 83 233.913 82.9333 234.287 82.8C234.673 82.6667 235.047 82.4867 235.407 82.26C235.767 82.02 236.087 81.74 236.367 81.42C236.66 81.1 236.873 80.7667 237.007 80.42L237.667 77.2C237.613 76.72 237.453 76.2867 237.187 75.9C236.92 75.5133 236.587 75.2 236.187 74.96C235.787 74.72 235.347 74.6 234.867 74.6C234.267 74.6 233.7 74.7467 233.167 75.04C232.633 75.3333 232.153 75.7267 231.727 76.22C231.313 76.7133 230.987 77.26 230.747 77.86C230.507 78.4467 230.387 79.04 230.387 79.64C230.387 80.2533 230.507 80.8133 230.747 81.32C230.987 81.8267 231.313 82.2333 231.727 82.54C232.153 82.8467 232.653 83 233.227 83ZM245.8 84.2C244.2 84.2 243.067 83.68 242.4 82.64C241.747 81.5867 241.58 80.16 241.9 78.36C242.22 76.52 242.647 75.0267 243.18 73.88C243.713 72.72 244.38 71.84 245.18 71.24C245.98 70.6267 246.933 70.2067 248.04 69.98C248.56 69.8733 249.06 69.7933 249.54 69.74C250.033 69.6733 250.467 69.5733 250.84 69.44C251.213 69.2933 251.48 69.0533 251.64 68.72L252.58 69.12C252.447 69.6267 252.193 70.0067 251.82 70.26C251.447 70.5133 250.96 70.7067 250.36 70.84C249.773 70.96 249.067 71.1 248.24 71.26C247.333 71.4333 246.573 71.7333 245.96 72.16C245.36 72.5867 244.86 73.1733 244.46 73.92C244.073 74.6533 243.733 75.58 243.44 76.7C243.907 75.9267 244.507 75.3333 245.24 74.92C245.987 74.4933 246.807 74.28 247.7 74.28C248.647 74.28 249.413 74.4867 250 74.9C250.6 75.3133 251.02 75.8867 251.26 76.62C251.5 77.3533 251.547 78.2 251.4 79.16C251.24 80.1733 250.913 81.06 250.42 81.82C249.94 82.5667 249.307 83.1533 248.52 83.58C247.747 83.9933 246.84 84.2 245.8 84.2ZM245.92 83.06C247.04 83.06 247.947 82.7133 248.64 82.02C249.347 81.3133 249.8 80.3867 250 79.24C250.173 78.12 250.027 77.2067 249.56 76.5C249.093 75.78 248.313 75.42 247.22 75.42C246.567 75.42 245.953 75.58 245.38 75.9C244.82 76.2067 244.34 76.6467 243.94 77.22C243.553 77.7933 243.293 78.4667 243.16 79.24C243.04 79.92 243.06 80.5533 243.22 81.14C243.393 81.7267 243.707 82.1933 244.16 82.54C244.613 82.8867 245.2 83.06 245.92 83.06ZM257.613 84.2C256.613 84.2 255.76 83.9533 255.053 83.46C254.346 82.9533 253.826 82.2933 253.493 81.48C253.173 80.6667 253.08 79.78 253.213 78.82C253.32 78.0733 253.54 77.38 253.873 76.74C254.22 76.0867 254.66 75.5133 255.193 75.02C255.726 74.5133 256.326 74.12 256.993 73.84C257.673 73.5467 258.386 73.4 259.133 73.4C260.133 73.4 260.986 73.6533 261.693 74.16C262.4 74.6533 262.92 75.3067 263.253 76.12C263.586 76.9333 263.686 77.8333 263.553 78.82C263.46 79.54 263.24 80.2267 262.893 80.88C262.56 81.52 262.126 82.0933 261.593 82.6C261.073 83.0933 260.473 83.4867 259.793 83.78C259.113 84.06 258.386 84.2 257.613 84.2ZM257.773 83.06C258.293 83.06 258.793 82.9467 259.273 82.72C259.766 82.4933 260.213 82.18 260.613 81.78C261.013 81.38 261.346 80.9267 261.613 80.42C261.893 79.9 262.073 79.36 262.153 78.8C262.273 78.0133 262.206 77.3 261.953 76.66C261.7 76.0067 261.313 75.4933 260.793 75.12C260.286 74.7333 259.68 74.54 258.973 74.54C258.453 74.54 257.953 74.6533 257.473 74.88C256.993 75.1067 256.546 75.4133 256.133 75.8C255.733 76.1867 255.4 76.64 255.133 77.16C254.866 77.68 254.693 78.24 254.613 78.84C254.506 79.6133 254.58 80.3267 254.833 80.98C255.086 81.62 255.466 82.1267 255.973 82.5C256.493 82.8733 257.093 83.06 257.773 83.06ZM266.862 73.58H268.122L267.602 75.94C268.162 75.1533 268.822 74.5333 269.582 74.08C270.342 73.6267 271.109 73.4 271.882 73.4C272.402 73.4 272.842 73.5067 273.202 73.72C273.562 73.9333 273.829 74.24 274.002 74.64C274.189 75.04 274.276 75.5333 274.262 76.12C274.662 75.52 275.096 75.02 275.562 74.62C276.029 74.22 276.529 73.92 277.062 73.72C277.596 73.5067 278.122 73.4 278.642 73.4C279.202 73.4 279.649 73.5067 279.982 73.72C280.316 73.92 280.562 74.2133 280.722 74.6C280.882 74.9867 280.962 75.44 280.962 75.96C280.962 76.2533 280.942 76.56 280.902 76.88C280.862 77.2 280.802 77.54 280.722 77.9L279.422 84H278.062L279.282 78.18C279.416 77.5533 279.482 77.0133 279.482 76.56C279.482 75.9067 279.349 75.4267 279.082 75.12C278.816 74.8 278.422 74.64 277.902 74.64C277.409 74.64 276.922 74.7667 276.442 75.02C275.962 75.2733 275.516 75.6267 275.102 76.08C274.689 76.52 274.342 77.04 274.062 77.64L272.722 84H271.362L272.582 78.18C272.662 77.8467 272.716 77.5467 272.742 77.28C272.782 77.0133 272.802 76.76 272.802 76.52C272.802 75.88 272.669 75.4067 272.402 75.1C272.136 74.7933 271.742 74.64 271.222 74.64C270.489 74.64 269.769 74.9133 269.062 75.46C268.369 76.0067 267.802 76.7267 267.362 77.62L266.022 84H264.662L266.862 73.58ZM282.381 84L284.581 73.58H285.941L284.961 78.14H286.521C287.294 77.6733 288.008 77.0467 288.661 76.26C289.314 75.46 289.954 74.5667 290.581 73.58H292.041C291.308 74.7267 290.581 75.7267 289.861 76.58C289.154 77.4333 288.408 78.1267 287.621 78.66L290.481 84H288.981L286.441 79.22H284.721L283.721 84H282.381ZM291.048 87.38C291.608 87.2867 292.061 87.16 292.408 87C292.768 86.8533 293.081 86.6333 293.348 86.34C293.628 86.0467 293.934 85.6467 294.268 85.14L294.928 84.16L292.788 73.58H294.208L295.888 82.74L296.708 81.4C297.281 80.4667 297.768 79.6467 298.168 78.94C298.568 78.22 298.908 77.5733 299.188 77C299.481 76.4133 299.721 75.8467 299.908 75.3C300.094 74.7533 300.274 74.18 300.448 73.58H301.788C301.614 74.22 301.421 74.82 301.208 75.38C301.008 75.94 300.754 76.5267 300.448 77.14C300.154 77.74 299.781 78.4267 299.328 79.2C298.888 79.96 298.334 80.8733 297.668 81.94L296.048 84.52C295.594 85.2533 295.174 85.8667 294.788 86.36C294.401 86.8667 294.021 87.2667 293.648 87.56C293.288 87.8667 292.914 88.0867 292.528 88.22C292.141 88.3667 291.708 88.4533 291.228 88.48L291.048 87.38ZM126.17 108.2C125.33 108.2 124.61 108 124.01 107.6C123.41 107.2 122.95 106.667 122.63 106C122.323 105.333 122.17 104.593 122.17 103.78C122.17 102.94 122.33 102.14 122.65 101.38C122.97 100.607 123.41 99.9267 123.97 99.34C124.543 98.74 125.203 98.2667 125.95 97.92C126.71 97.5733 127.523 97.4 128.39 97.4C129.35 97.4 130.13 97.6267 130.73 98.08C131.343 98.52 131.743 99.12 131.93 99.88L130.53 100.3C130.357 99.7533 130.063 99.3333 129.65 99.04C129.25 98.7467 128.763 98.6 128.19 98.6C127.603 98.6 127.03 98.7333 126.47 99C125.923 99.2533 125.43 99.6133 124.99 100.08C124.563 100.547 124.217 101.08 123.95 101.68C123.697 102.28 123.57 102.92 123.57 103.6C123.57 104.253 123.683 104.833 123.91 105.34C124.15 105.847 124.477 106.253 124.89 106.56C125.317 106.853 125.797 107 126.33 107C126.757 107 127.183 106.92 127.61 106.76C128.05 106.6 128.443 106.387 128.79 106.12C129.137 105.84 129.39 105.54 129.55 105.22L130.81 105.62C130.53 106.113 130.143 106.56 129.65 106.96C129.157 107.347 128.61 107.653 128.01 107.88C127.41 108.093 126.797 108.2 126.17 108.2ZM136.378 108.2C135.618 108.2 134.958 108 134.398 107.6C133.838 107.2 133.411 106.667 133.118 106C132.824 105.333 132.678 104.613 132.678 103.84C132.678 103.013 132.831 102.22 133.138 101.46C133.458 100.687 133.884 100 134.418 99.4C134.964 98.7867 135.584 98.3 136.278 97.94C136.971 97.58 137.698 97.4 138.458 97.4C139.298 97.4 139.991 97.6333 140.538 98.1C141.084 98.5533 141.471 99.1067 141.698 99.76L142.178 97.58H143.538L141.698 106.22C141.684 106.26 141.671 106.307 141.658 106.36C141.658 106.4 141.658 106.44 141.658 106.48C141.658 106.693 141.784 106.8 142.038 106.8L141.778 108C141.671 108.013 141.571 108.027 141.478 108.04C141.398 108.053 141.318 108.06 141.238 108.06C140.931 108.047 140.698 107.967 140.538 107.82C140.391 107.66 140.318 107.473 140.318 107.26C140.318 107.18 140.324 107.093 140.338 107C140.351 106.907 140.371 106.78 140.398 106.62C140.438 106.46 140.484 106.247 140.538 105.98C140.004 106.66 139.358 107.2 138.598 107.6C137.851 108 137.111 108.2 136.378 108.2ZM136.938 107C137.271 107 137.624 106.933 137.998 106.8C138.384 106.667 138.758 106.487 139.118 106.26C139.478 106.02 139.798 105.74 140.078 105.42C140.371 105.1 140.584 104.767 140.718 104.42L141.378 101.2C141.324 100.72 141.164 100.287 140.898 99.9C140.631 99.5133 140.298 99.2 139.898 98.96C139.498 98.72 139.058 98.6 138.578 98.6C137.978 98.6 137.411 98.7467 136.878 99.04C136.344 99.3333 135.864 99.7267 135.438 100.22C135.024 100.713 134.698 101.26 134.458 101.86C134.218 102.447 134.098 103.04 134.098 103.64C134.098 104.253 134.218 104.813 134.458 105.32C134.698 105.827 135.024 106.233 135.438 106.54C135.864 106.847 136.364 107 136.938 107ZM147.311 108.2C145.684 108.2 144.871 107.307 144.871 105.52C144.871 105.253 144.891 104.973 144.931 104.68C144.971 104.373 145.024 104.047 145.091 103.7L146.411 97.58H147.751L146.511 103.46C146.378 104.06 146.311 104.58 146.311 105.02C146.311 106.34 146.884 107 148.031 107C148.538 107 149.044 106.887 149.551 106.66C150.058 106.42 150.538 106.087 150.991 105.66C151.458 105.22 151.844 104.713 152.151 104.14L153.551 97.58H154.911L153.091 106.08C153.078 106.16 153.064 106.233 153.051 106.3C153.038 106.367 153.031 106.42 153.031 106.46C153.031 106.687 153.158 106.8 153.411 106.8L153.151 108C153.044 108.013 152.944 108.027 152.851 108.04C152.758 108.053 152.671 108.053 152.591 108.04C152.311 108.027 152.098 107.953 151.951 107.82C151.804 107.673 151.731 107.487 151.731 107.26C151.731 107.193 151.738 107.113 151.751 107.02C151.764 106.913 151.791 106.753 151.831 106.54C151.871 106.327 151.931 106.027 152.011 105.64C151.398 106.44 150.671 107.067 149.831 107.52C149.004 107.973 148.164 108.2 147.311 108.2ZM150.891 95.88C150.331 95.88 149.864 95.8 149.491 95.64C149.131 95.48 148.864 95.2667 148.691 95C148.531 94.72 148.464 94.42 148.491 94.1H149.271C149.258 94.38 149.371 94.6333 149.611 94.86C149.851 95.0733 150.291 95.18 150.931 95.18C151.558 95.18 151.998 95.08 152.251 94.88C152.518 94.6667 152.704 94.4067 152.811 94.1H153.591C153.578 94.42 153.464 94.72 153.251 95C153.038 95.2667 152.731 95.48 152.331 95.64C151.944 95.8 151.464 95.88 150.891 95.88ZM157.898 97.58H159.158L158.638 99.94C159.198 99.1533 159.858 98.5333 160.618 98.08C161.378 97.6267 162.144 97.4 162.918 97.4C163.438 97.4 163.878 97.5067 164.238 97.72C164.598 97.9333 164.864 98.24 165.038 98.64C165.224 99.04 165.311 99.5333 165.298 100.12C165.698 99.52 166.131 99.02 166.598 98.62C167.064 98.22 167.564 97.92 168.098 97.72C168.631 97.5067 169.158 97.4 169.678 97.4C170.238 97.4 170.684 97.5067 171.018 97.72C171.351 97.92 171.598 98.2133 171.758 98.6C171.918 98.9867 171.998 99.44 171.998 99.96C171.998 100.253 171.978 100.56 171.938 100.88C171.898 101.2 171.838 101.54 171.758 101.9L170.458 108H169.098L170.318 102.18C170.451 101.553 170.518 101.013 170.518 100.56C170.518 99.9067 170.384 99.4267 170.118 99.12C169.851 98.8 169.458 98.64 168.938 98.64C168.444 98.64 167.958 98.7667 167.478 99.02C166.998 99.2733 166.551 99.6267 166.138 100.08C165.724 100.52 165.378 101.04 165.098 101.64L163.758 108H162.398L163.618 102.18C163.698 101.847 163.751 101.547 163.778 101.28C163.818 101.013 163.838 100.76 163.838 100.52C163.838 99.88 163.704 99.4067 163.438 99.1C163.171 98.7933 162.778 98.64 162.258 98.64C161.524 98.64 160.804 98.9133 160.098 99.46C159.404 100.007 158.838 100.727 158.398 101.62L157.058 108H155.698L157.898 97.58ZM177.276 108.2C176.516 108.2 175.856 108 175.296 107.6C174.736 107.2 174.31 106.667 174.016 106C173.723 105.333 173.576 104.613 173.576 103.84C173.576 103.013 173.73 102.22 174.036 101.46C174.356 100.687 174.783 100 175.316 99.4C175.863 98.7867 176.483 98.3 177.176 97.94C177.87 97.58 178.596 97.4 179.356 97.4C180.196 97.4 180.89 97.6333 181.436 98.1C181.983 98.5533 182.37 99.1067 182.596 99.76L183.076 97.58H184.436L182.596 106.22C182.583 106.26 182.57 106.307 182.556 106.36C182.556 106.4 182.556 106.44 182.556 106.48C182.556 106.693 182.683 106.8 182.936 106.8L182.676 108C182.57 108.013 182.47 108.027 182.376 108.04C182.296 108.053 182.216 108.06 182.136 108.06C181.83 108.047 181.596 107.967 181.436 107.82C181.29 107.66 181.216 107.473 181.216 107.26C181.216 107.18 181.223 107.093 181.236 107C181.25 106.907 181.27 106.78 181.296 106.62C181.336 106.46 181.383 106.247 181.436 105.98C180.903 106.66 180.256 107.2 179.496 107.6C178.75 108 178.01 108.2 177.276 108.2ZM177.836 107C178.17 107 178.523 106.933 178.896 106.8C179.283 106.667 179.656 106.487 180.016 106.26C180.376 106.02 180.696 105.74 180.976 105.42C181.27 105.1 181.483 104.767 181.616 104.42L182.276 101.2C182.223 100.72 182.063 100.287 181.796 99.9C181.53 99.5133 181.196 99.2 180.796 98.96C180.396 98.72 179.956 98.6 179.476 98.6C178.876 98.6 178.31 98.7467 177.776 99.04C177.243 99.3333 176.763 99.7267 176.336 100.22C175.923 100.713 175.596 101.26 175.356 101.86C175.116 102.447 174.996 103.04 174.996 103.64C174.996 104.253 175.116 104.813 175.356 105.32C175.596 105.827 175.923 106.233 176.336 106.54C176.763 106.847 177.263 107 177.836 107ZM190.35 108L192.55 97.58H193.91L192.93 102.12H198.91L199.85 97.58H201.21L199.01 108H197.65L198.67 103.2H192.71L191.71 108H190.35ZM205.753 108.2C204.993 108.2 204.333 108 203.773 107.6C203.213 107.2 202.786 106.667 202.493 106C202.199 105.333 202.053 104.613 202.053 103.84C202.053 103.013 202.206 102.22 202.513 101.46C202.833 100.687 203.259 100 203.793 99.4C204.339 98.7867 204.959 98.3 205.653 97.94C206.346 97.58 207.073 97.4 207.833 97.4C208.673 97.4 209.366 97.6333 209.913 98.1C210.459 98.5533 210.846 99.1067 211.073 99.76L211.553 97.58H212.913L211.073 106.22C211.059 106.26 211.046 106.307 211.033 106.36C211.033 106.4 211.033 106.44 211.033 106.48C211.033 106.693 211.159 106.8 211.413 106.8L211.153 108C211.046 108.013 210.946 108.027 210.853 108.04C210.773 108.053 210.693 108.06 210.613 108.06C210.306 108.047 210.073 107.967 209.913 107.82C209.766 107.66 209.693 107.473 209.693 107.26C209.693 107.18 209.699 107.093 209.713 107C209.726 106.907 209.746 106.78 209.773 106.62C209.813 106.46 209.859 106.247 209.913 105.98C209.379 106.66 208.733 107.2 207.973 107.6C207.226 108 206.486 108.2 205.753 108.2ZM206.313 107C206.646 107 206.999 106.933 207.373 106.8C207.759 106.667 208.133 106.487 208.493 106.26C208.853 106.02 209.173 105.74 209.453 105.42C209.746 105.1 209.959 104.767 210.093 104.42L210.753 101.2C210.699 100.72 210.539 100.287 210.273 99.9C210.006 99.5133 209.673 99.2 209.273 98.96C208.873 98.72 208.433 98.6 207.953 98.6C207.353 98.6 206.786 98.7467 206.253 99.04C205.719 99.3333 205.239 99.7267 204.813 100.22C204.399 100.713 204.073 101.26 203.833 101.86C203.593 102.447 203.473 103.04 203.473 103.64C203.473 104.253 203.593 104.813 203.833 105.32C204.073 105.827 204.399 106.233 204.813 106.54C205.239 106.847 205.739 107 206.313 107ZM218.826 108L221.026 97.58H222.386L221.406 102.14H222.966C223.74 101.673 224.453 101.047 225.106 100.26C225.76 99.46 226.4 98.5667 227.026 97.58H228.486C227.753 98.7267 227.026 99.7267 226.306 100.58C225.6 101.433 224.853 102.127 224.066 102.66L226.926 108H225.426L222.886 103.22H221.166L220.166 108H218.826ZM233.492 108.2C232.492 108.2 231.639 107.953 230.932 107.46C230.225 106.953 229.705 106.293 229.372 105.48C229.052 104.667 228.959 103.78 229.092 102.82C229.199 102.073 229.419 101.38 229.752 100.74C230.099 100.087 230.539 99.5133 231.072 99.02C231.605 98.5133 232.205 98.12 232.872 97.84C233.552 97.5467 234.265 97.4 235.012 97.4C236.012 97.4 236.865 97.6533 237.572 98.16C238.279 98.6533 238.799 99.3067 239.132 100.12C239.465 100.933 239.565 101.833 239.432 102.82C239.339 103.54 239.119 104.227 238.772 104.88C238.439 105.52 238.005 106.093 237.472 106.6C236.952 107.093 236.352 107.487 235.672 107.78C234.992 108.06 234.265 108.2 233.492 108.2ZM233.652 107.06C234.172 107.06 234.672 106.947 235.152 106.72C235.645 106.493 236.092 106.18 236.492 105.78C236.892 105.38 237.225 104.927 237.492 104.42C237.772 103.9 237.952 103.36 238.032 102.8C238.152 102.013 238.085 101.3 237.832 100.66C237.579 100.007 237.192 99.4933 236.672 99.12C236.165 98.7333 235.559 98.54 234.852 98.54C234.332 98.54 233.832 98.6533 233.352 98.88C232.872 99.1067 232.425 99.4133 232.012 99.8C231.612 100.187 231.279 100.64 231.012 101.16C230.745 101.68 230.572 102.24 230.492 102.84C230.385 103.613 230.459 104.327 230.712 104.98C230.965 105.62 231.345 106.127 231.852 106.5C232.372 106.873 232.972 107.06 233.652 107.06ZM245.361 108.2C244.388 108.2 243.561 107.96 242.881 107.48C242.215 106.987 241.728 106.34 241.421 105.54C241.115 104.727 241.028 103.853 241.161 102.92C241.268 102.227 241.481 101.573 241.801 100.96C242.121 100.347 242.528 99.8133 243.021 99.36C243.515 98.8933 244.075 98.5333 244.701 98.28C245.328 98.0267 245.988 97.9 246.681 97.9C247.321 97.9 247.901 98.0267 248.421 98.28C248.955 98.52 249.395 98.8533 249.741 99.28C250.088 99.6933 250.321 100.173 250.441 100.72C250.655 99.2533 250.635 98.0867 250.381 97.22C250.141 96.34 249.661 95.6933 248.941 95.28C248.421 94.9733 247.768 94.78 246.981 94.7C246.195 94.62 245.288 94.62 244.261 94.7V93.54C245.341 93.4467 246.328 93.46 247.221 93.58C248.128 93.6867 248.908 93.9333 249.561 94.32C250.268 94.72 250.815 95.28 251.201 96C251.601 96.72 251.801 97.6333 251.801 98.74C251.801 99.54 251.728 100.38 251.581 101.26C251.435 102.127 251.188 103.04 250.841 104C250.561 104.76 250.168 105.46 249.661 106.1C249.155 106.727 248.541 107.233 247.821 107.62C247.101 108.007 246.281 108.2 245.361 108.2ZM245.541 107.08C246.048 107.08 246.535 106.973 247.001 106.76C247.481 106.547 247.915 106.253 248.301 105.88C248.701 105.507 249.028 105.073 249.281 104.58C249.535 104.073 249.708 103.54 249.801 102.98C249.908 102.233 249.841 101.56 249.601 100.96C249.361 100.36 248.995 99.8867 248.501 99.54C248.008 99.18 247.421 99 246.741 99C246.061 99 245.415 99.1733 244.801 99.52C244.201 99.8667 243.695 100.34 243.281 100.94C242.881 101.54 242.621 102.227 242.501 103C242.408 103.76 242.475 104.453 242.701 105.08C242.941 105.693 243.308 106.18 243.801 106.54C244.295 106.9 244.875 107.08 245.541 107.08ZM257.334 108.2C256.361 108.2 255.541 107.967 254.874 107.5C254.221 107.02 253.748 106.393 253.454 105.62C253.161 104.833 253.054 103.98 253.134 103.06C253.214 102.313 253.414 101.6 253.734 100.92C254.054 100.24 254.474 99.64 254.994 99.12C255.528 98.5867 256.141 98.1667 256.834 97.86C257.541 97.5533 258.301 97.4 259.114 97.4C259.688 97.4 260.234 97.5067 260.754 97.72C261.288 97.92 261.721 98.2333 262.054 98.66C262.388 99.0733 262.561 99.5867 262.574 100.2C262.588 101.213 262.154 101.993 261.274 102.54C260.394 103.087 259.008 103.36 257.114 103.36C256.608 103.36 256.074 103.353 255.514 103.34C254.954 103.313 254.334 103.273 253.654 103.22L254.014 102.18C254.614 102.22 255.161 102.253 255.654 102.28C256.148 102.293 256.634 102.3 257.114 102.3C258.154 102.3 258.968 102.213 259.554 102.04C260.154 101.867 260.574 101.627 260.814 101.32C261.068 101 261.181 100.633 261.154 100.22C261.141 99.8467 261.021 99.5333 260.794 99.28C260.581 99.0267 260.308 98.84 259.974 98.72C259.641 98.6 259.281 98.54 258.894 98.54C258.321 98.54 257.774 98.66 257.254 98.9C256.748 99.14 256.294 99.4733 255.894 99.9C255.494 100.313 255.168 100.793 254.914 101.34C254.661 101.887 254.514 102.46 254.474 103.06C254.408 103.82 254.481 104.507 254.694 105.12C254.908 105.72 255.254 106.193 255.734 106.54C256.228 106.887 256.834 107.06 257.554 107.06C258.008 107.06 258.414 106.993 258.774 106.86C259.148 106.727 259.468 106.567 259.734 106.38C260.014 106.18 260.234 105.987 260.394 105.8C260.554 105.613 260.661 105.467 260.714 105.36L261.914 105.76C261.848 105.88 261.708 106.073 261.494 106.34C261.281 106.607 260.981 106.88 260.594 107.16C260.221 107.44 259.761 107.687 259.214 107.9C258.681 108.1 258.054 108.2 257.334 108.2Z" fill="white"/>
</svg>
