<svg width="383" height="170" viewBox="0 0 383 170" fill="none" xmlns="http://www.w3.org/2000/svg">
<path d="M181.461 5.82641C187.669 2.22355 195.331 2.22354 201.539 5.82641L216.411 14.4575C220.866 17.0429 226.146 17.81 231.153 16.5989L255.56 10.6943C263.707 8.72353 272.157 12.5 276.123 19.8839V19.8839C279.444 26.069 285.993 29.8284 293.009 29.5783L320.156 28.6107C326.526 28.3836 330.982 34.8425 328.507 40.717V40.717C326.305 45.9431 329.597 51.8478 335.199 52.724L353.322 55.5581C360.423 56.6686 362.389 65.9667 356.345 69.8568V69.8568C351.054 73.2621 351.749 81.2039 357.55 83.6397L358.905 84.2085C366.443 87.3737 365.717 98.2847 357.826 100.423L349.645 102.641C344.004 104.17 342.022 111.155 346.019 115.419V115.419C350.514 120.214 347.374 128.075 340.812 128.454L315.883 129.893C309.883 130.239 305.099 135.034 304.766 141.035V141.035C304.386 147.904 298.24 152.997 291.42 152.095L263.183 148.36C257.25 147.576 251.278 149.489 246.906 153.574L240.425 159.63C234.849 164.84 226.794 166.423 219.661 163.71L198.61 155.704C194.03 153.962 188.97 153.962 184.39 155.704L163.339 163.71C156.206 166.423 148.151 164.84 142.575 159.63L136.094 153.574C131.722 149.489 125.75 147.576 119.817 148.36L91.58 152.095C84.7599 152.997 78.6143 147.904 78.2338 141.035V141.035C77.9014 135.034 73.1174 130.239 67.1174 129.893L42.1878 128.454C35.6265 128.075 32.4863 120.214 36.9811 115.419V115.419C40.9781 111.155 38.9958 104.17 33.3548 102.641L25.174 100.423C17.2827 98.2847 16.5569 87.3737 24.0953 84.2085L25.4501 83.6397C31.2515 81.2039 31.9456 73.2621 26.6548 69.8568V69.8568C20.6108 65.9667 22.5769 56.6686 29.6782 55.5581L47.8006 52.724C53.4035 51.8478 56.6946 45.9431 54.4929 40.717V40.717C52.0181 34.8425 56.4736 28.3836 62.844 28.6107L89.9907 29.5783C97.007 29.8284 103.556 26.069 106.877 19.8839V19.8839C110.843 12.5 119.293 8.72353 127.44 10.6943L151.847 16.5989C156.854 17.81 162.134 17.0429 166.589 14.4575L181.461 5.82641Z" fill="#FF7262"/>
<path d="M88.2965 84.18C87.3365 84.18 86.4965 83.9733 85.7765 83.56C85.0565 83.1333 84.5365 82.5467 84.2165 81.8L85.3965 81.14C85.6365 81.7533 86.0298 82.22 86.5765 82.54C87.1232 82.8467 87.7698 83 88.5165 83C89.2098 83 89.8098 82.8933 90.3165 82.68C90.8365 82.4533 91.2565 82.1267 91.5765 81.7C91.9098 81.2733 92.1165 80.76 92.1965 80.16C92.3298 79.3067 92.1698 78.6067 91.7165 78.06C91.2632 77.5 90.5565 77.22 89.5965 77.22H88.4365L88.6365 76.1H89.7765C90.2698 76.1 90.7165 75.9867 91.1165 75.76C91.5298 75.52 91.8698 75.2067 92.1365 74.82C92.4165 74.4333 92.5965 74 92.6765 73.52C92.7565 72.9733 92.7232 72.5 92.5765 72.1C92.4298 71.7 92.1765 71.3933 91.8165 71.18C91.4565 70.9533 90.9898 70.84 90.4165 70.84C89.7632 70.84 89.1365 70.9933 88.5365 71.3C87.9365 71.5933 87.4565 72.0267 87.0965 72.6L86.1565 71.92C86.6632 71.2133 87.2832 70.6533 88.0165 70.24C88.7632 69.8267 89.5965 69.62 90.5165 69.62C91.3432 69.62 92.0365 69.78 92.5965 70.1C93.1565 70.4067 93.5698 70.8467 93.8365 71.42C94.1032 71.9933 94.1765 72.66 94.0565 73.42C93.9498 74.1133 93.6698 74.7467 93.2165 75.32C92.7765 75.8933 92.2098 76.32 91.5165 76.6C92.3165 76.84 92.8965 77.2933 93.2565 77.96C93.6165 78.6133 93.7298 79.3867 93.5965 80.28C93.4765 81.08 93.1765 81.7733 92.6965 82.36C92.2298 82.9467 91.6165 83.4 90.8565 83.72C90.1098 84.0267 89.2565 84.18 88.2965 84.18ZM99.1512 84.2C98.3912 84.2 97.7312 84 97.1712 83.6C96.6112 83.2 96.1845 82.6667 95.8912 82C95.5978 81.3333 95.4512 80.6133 95.4512 79.84C95.4512 79.0133 95.6045 78.22 95.9112 77.46C96.2312 76.6867 96.6578 76 97.1912 75.4C97.7378 74.7867 98.3578 74.3 99.0512 73.94C99.7445 73.58 100.471 73.4 101.231 73.4C102.071 73.4 102.765 73.6333 103.311 74.1C103.858 74.5533 104.245 75.1067 104.471 75.76L104.951 73.58H106.311L104.471 82.22C104.458 82.26 104.445 82.3067 104.431 82.36C104.431 82.4 104.431 82.44 104.431 82.48C104.431 82.6933 104.558 82.8 104.811 82.8L104.551 84C104.445 84.0133 104.345 84.0267 104.251 84.04C104.171 84.0533 104.091 84.06 104.011 84.06C103.705 84.0467 103.471 83.9667 103.311 83.82C103.165 83.66 103.091 83.4733 103.091 83.26C103.091 83.18 103.098 83.0933 103.111 83C103.125 82.9067 103.145 82.78 103.171 82.62C103.211 82.46 103.258 82.2467 103.311 81.98C102.778 82.66 102.131 83.2 101.371 83.6C100.625 84 99.8845 84.2 99.1512 84.2ZM99.7112 83C100.045 83 100.398 82.9333 100.771 82.8C101.158 82.6667 101.531 82.4867 101.891 82.26C102.251 82.02 102.571 81.74 102.851 81.42C103.145 81.1 103.358 80.7667 103.491 80.42L104.151 77.2C104.098 76.72 103.938 76.2867 103.671 75.9C103.405 75.5133 103.071 75.2 102.671 74.96C102.271 74.72 101.831 74.6 101.351 74.6C100.751 74.6 100.185 74.7467 99.6512 75.04C99.1178 75.3333 98.6378 75.7267 98.2112 76.22C97.7978 76.7133 97.4712 77.26 97.2312 77.86C96.9912 78.4467 96.8712 79.04 96.8712 79.64C96.8712 80.2533 96.9912 80.8133 97.2312 81.32C97.4712 81.8267 97.7978 82.2333 98.2112 82.54C98.6378 82.8467 99.1378 83 99.7112 83ZM107.244 84L109.444 73.58H110.804L109.824 78.14H111.384C112.158 77.6733 112.871 77.0467 113.524 76.26C114.178 75.46 114.818 74.5667 115.444 73.58H116.904C116.171 74.7267 115.444 75.7267 114.724 76.58C114.018 77.4333 113.271 78.1267 112.484 78.66L115.344 84H113.844L111.304 79.22H109.584L108.584 84H107.244ZM120.87 84.2C120.11 84.2 119.45 84 118.89 83.6C118.33 83.2 117.903 82.6667 117.61 82C117.317 81.3333 117.17 80.6133 117.17 79.84C117.17 79.0133 117.323 78.22 117.63 77.46C117.95 76.6867 118.377 76 118.91 75.4C119.457 74.7867 120.077 74.3 120.77 73.94C121.463 73.58 122.19 73.4 122.95 73.4C123.79 73.4 124.483 73.6333 125.03 74.1C125.577 74.5533 125.963 75.1067 126.19 75.76L126.67 73.58H128.03L126.19 82.22C126.177 82.26 126.163 82.3067 126.15 82.36C126.15 82.4 126.15 82.44 126.15 82.48C126.15 82.6933 126.277 82.8 126.53 82.8L126.27 84C126.163 84.0133 126.063 84.0267 125.97 84.04C125.89 84.0533 125.81 84.06 125.73 84.06C125.423 84.0467 125.19 83.9667 125.03 83.82C124.883 83.66 124.81 83.4733 124.81 83.26C124.81 83.18 124.817 83.0933 124.83 83C124.843 82.9067 124.863 82.78 124.89 82.62C124.93 82.46 124.977 82.2467 125.03 81.98C124.497 82.66 123.85 83.2 123.09 83.6C122.343 84 121.603 84.2 120.87 84.2ZM121.43 83C121.763 83 122.117 82.9333 122.49 82.8C122.877 82.6667 123.25 82.4867 123.61 82.26C123.97 82.02 124.29 81.74 124.57 81.42C124.863 81.1 125.077 80.7667 125.21 80.42L125.87 77.2C125.817 76.72 125.657 76.2867 125.39 75.9C125.123 75.5133 124.79 75.2 124.39 74.96C123.99 74.72 123.55 74.6 123.07 74.6C122.47 74.6 121.903 74.7467 121.37 75.04C120.837 75.3333 120.357 75.7267 119.93 76.22C119.517 76.7133 119.19 77.26 118.95 77.86C118.71 78.4467 118.59 79.04 118.59 79.64C118.59 80.2533 118.71 80.8133 118.95 81.32C119.19 81.8267 119.517 82.2333 119.93 82.54C120.357 82.8467 120.857 83 121.43 83ZM132.343 84.12C131.383 84.12 130.59 83.94 129.963 83.58C129.35 83.2067 128.93 82.6867 128.703 82.02L129.863 81.52C130.036 81.9867 130.343 82.3533 130.783 82.62C131.236 82.8733 131.803 83 132.483 83C133.296 83 133.976 82.8133 134.523 82.44C135.07 82.0667 135.396 81.5667 135.503 80.94C135.61 80.3667 135.496 79.9067 135.163 79.56C134.843 79.2133 134.343 79.0333 133.663 79.02H132.283L132.483 78.08H133.883C134.176 78.08 134.45 78.0067 134.703 77.86C134.97 77.7 135.196 77.4933 135.383 77.24C135.583 76.9867 135.703 76.7067 135.743 76.4C135.85 75.8533 135.743 75.4133 135.423 75.08C135.103 74.7333 134.583 74.56 133.863 74.56C133.29 74.56 132.783 74.68 132.343 74.92C131.903 75.1467 131.536 75.4867 131.243 75.94L130.263 75.38C130.676 74.7667 131.21 74.2867 131.863 73.94C132.53 73.5933 133.27 73.42 134.083 73.42C134.763 73.42 135.343 73.54 135.823 73.78C136.303 74.0067 136.65 74.34 136.863 74.78C137.09 75.2067 137.156 75.7267 137.063 76.34C136.996 76.8333 136.81 77.2667 136.503 77.64C136.196 78.0133 135.816 78.2933 135.363 78.48C135.95 78.6667 136.37 78.9933 136.623 79.46C136.876 79.9267 136.943 80.4733 136.823 81.1C136.716 81.7267 136.456 82.2667 136.043 82.72C135.63 83.1733 135.103 83.52 134.463 83.76C133.836 84 133.13 84.12 132.343 84.12ZM142.569 84.2C141.809 84.2 141.149 84 140.589 83.6C140.029 83.2 139.602 82.6667 139.309 82C139.016 81.3333 138.869 80.6133 138.869 79.84C138.869 79.0133 139.022 78.22 139.329 77.46C139.649 76.6867 140.076 76 140.609 75.4C141.156 74.7867 141.776 74.3 142.469 73.94C143.162 73.58 143.889 73.4 144.649 73.4C145.489 73.4 146.182 73.6333 146.729 74.1C147.276 74.5533 147.662 75.1067 147.889 75.76L148.369 73.58H149.729L147.889 82.22C147.876 82.26 147.862 82.3067 147.849 82.36C147.849 82.4 147.849 82.44 147.849 82.48C147.849 82.6933 147.976 82.8 148.229 82.8L147.969 84C147.862 84.0133 147.762 84.0267 147.669 84.04C147.589 84.0533 147.509 84.06 147.429 84.06C147.122 84.0467 146.889 83.9667 146.729 83.82C146.582 83.66 146.509 83.4733 146.509 83.26C146.509 83.18 146.516 83.0933 146.529 83C146.542 82.9067 146.562 82.78 146.589 82.62C146.629 82.46 146.676 82.2467 146.729 81.98C146.196 82.66 145.549 83.2 144.789 83.6C144.042 84 143.302 84.2 142.569 84.2ZM143.129 83C143.462 83 143.816 82.9333 144.189 82.8C144.576 82.6667 144.949 82.4867 145.309 82.26C145.669 82.02 145.989 81.74 146.269 81.42C146.562 81.1 146.776 80.7667 146.909 80.42L147.569 77.2C147.516 76.72 147.356 76.2867 147.089 75.9C146.822 75.5133 146.489 75.2 146.089 74.96C145.689 74.72 145.249 74.6 144.769 74.6C144.169 74.6 143.602 74.7467 143.069 75.04C142.536 75.3333 142.056 75.7267 141.629 76.22C141.216 76.7133 140.889 77.26 140.649 77.86C140.409 78.4467 140.289 79.04 140.289 79.64C140.289 80.2533 140.409 80.8133 140.649 81.32C140.889 81.8267 141.216 82.2333 141.629 82.54C142.056 82.8467 142.556 83 143.129 83ZM152.702 73.58H153.962L153.442 75.94C154.002 75.1533 154.662 74.5333 155.422 74.08C156.182 73.6267 156.949 73.4 157.722 73.4C158.242 73.4 158.682 73.5067 159.042 73.72C159.402 73.9333 159.669 74.24 159.842 74.64C160.029 75.04 160.116 75.5333 160.102 76.12C160.502 75.52 160.936 75.02 161.402 74.62C161.869 74.22 162.369 73.92 162.902 73.72C163.436 73.5067 163.962 73.4 164.482 73.4C165.042 73.4 165.489 73.5067 165.822 73.72C166.156 73.92 166.402 74.2133 166.562 74.6C166.722 74.9867 166.802 75.44 166.802 75.96C166.802 76.2533 166.782 76.56 166.742 76.88C166.702 77.2 166.642 77.54 166.562 77.9L165.262 84H163.902L165.122 78.18C165.256 77.5533 165.322 77.0133 165.322 76.56C165.322 75.9067 165.189 75.4267 164.922 75.12C164.656 74.8 164.262 74.64 163.742 74.64C163.249 74.64 162.762 74.7667 162.282 75.02C161.802 75.2733 161.356 75.6267 160.942 76.08C160.529 76.52 160.182 77.04 159.902 77.64L158.562 84H157.202L158.422 78.18C158.502 77.8467 158.556 77.5467 158.582 77.28C158.622 77.0133 158.642 76.76 158.642 76.52C158.642 75.88 158.509 75.4067 158.242 75.1C157.976 74.7933 157.582 74.64 157.062 74.64C156.329 74.64 155.609 74.9133 154.902 75.46C154.209 76.0067 153.642 76.7267 153.202 77.62L151.862 84H150.502L152.702 73.58ZM172.301 84.14C171.488 84.14 170.781 83.9867 170.181 83.68C169.594 83.3733 169.168 82.9133 168.901 82.3C168.648 81.6733 168.614 80.88 168.801 79.92C169.028 78.8667 169.261 77.8133 169.501 76.76C169.754 75.6933 170.001 74.6333 170.241 73.58H171.601C171.361 74.6467 171.114 75.7133 170.861 76.78C170.621 77.8467 170.388 78.9133 170.161 79.98C170.028 80.6733 170.048 81.2467 170.221 81.7C170.394 82.1533 170.674 82.4867 171.061 82.7C171.461 82.9133 171.928 83.02 172.461 83.02C173.288 83.02 173.961 82.8 174.481 82.36C175.014 81.9067 175.334 81.3 175.441 80.54C175.561 79.7667 175.414 79.16 175.001 78.72C174.588 78.28 173.854 78.06 172.801 78.06H170.081L170.261 76.96H173.141C173.808 76.96 174.388 77.0533 174.881 77.24C175.388 77.4133 175.794 77.6667 176.101 78C176.421 78.3333 176.641 78.7267 176.761 79.18C176.894 79.6333 176.921 80.14 176.841 80.7C176.721 81.46 176.454 82.1 176.041 82.62C175.628 83.1267 175.101 83.5067 174.461 83.76C173.834 84.0133 173.114 84.14 172.301 84.14ZM185.457 73.58H186.657L186.237 75.6C186.77 74.9467 187.403 74.42 188.137 74.02C188.883 73.6067 189.63 73.4 190.377 73.4C191.15 73.4 191.81 73.6067 192.357 74.02C192.917 74.42 193.343 74.9533 193.637 75.62C193.93 76.2867 194.077 77.0067 194.077 77.78C194.077 78.5933 193.923 79.3867 193.617 80.16C193.31 80.92 192.89 81.6067 192.357 82.22C191.823 82.8333 191.21 83.32 190.517 83.68C189.823 84.0267 189.083 84.2 188.297 84.2C187.47 84.2 186.783 83.9733 186.237 83.52C185.69 83.0667 185.297 82.5067 185.057 81.84L183.697 88.26H182.337L185.457 73.58ZM188.177 83C188.777 83 189.343 82.8533 189.877 82.56C190.423 82.2667 190.903 81.88 191.317 81.4C191.73 80.92 192.057 80.38 192.297 79.78C192.537 79.18 192.657 78.5867 192.657 78C192.657 77.3733 192.537 76.8067 192.297 76.3C192.07 75.78 191.743 75.3667 191.317 75.06C190.89 74.7533 190.383 74.6 189.797 74.6C189.477 74.6 189.123 74.6667 188.737 74.8C188.363 74.9333 187.99 75.1267 187.617 75.38C187.257 75.62 186.937 75.8933 186.657 76.2C186.377 76.5067 186.17 76.8333 186.037 77.18L185.357 80.38C185.45 80.8733 185.623 81.32 185.877 81.72C186.143 82.1067 186.47 82.42 186.857 82.66C187.257 82.8867 187.697 83 188.177 83ZM199.112 84.2C198.352 84.2 197.692 84 197.132 83.6C196.572 83.2 196.145 82.6667 195.852 82C195.559 81.3333 195.412 80.6133 195.412 79.84C195.412 79.0133 195.565 78.22 195.872 77.46C196.192 76.6867 196.619 76 197.152 75.4C197.699 74.7867 198.319 74.3 199.012 73.94C199.705 73.58 200.432 73.4 201.192 73.4C202.032 73.4 202.725 73.6333 203.272 74.1C203.819 74.5533 204.205 75.1067 204.432 75.76L204.912 73.58H206.272L204.432 82.22C204.419 82.26 204.405 82.3067 204.392 82.36C204.392 82.4 204.392 82.44 204.392 82.48C204.392 82.6933 204.519 82.8 204.772 82.8L204.512 84C204.405 84.0133 204.305 84.0267 204.212 84.04C204.132 84.0533 204.052 84.06 203.972 84.06C203.665 84.0467 203.432 83.9667 203.272 83.82C203.125 83.66 203.052 83.4733 203.052 83.26C203.052 83.18 203.059 83.0933 203.072 83C203.085 82.9067 203.105 82.78 203.132 82.62C203.172 82.46 203.219 82.2467 203.272 81.98C202.739 82.66 202.092 83.2 201.332 83.6C200.585 84 199.845 84.2 199.112 84.2ZM199.672 83C200.005 83 200.359 82.9333 200.732 82.8C201.119 82.6667 201.492 82.4867 201.852 82.26C202.212 82.02 202.532 81.74 202.812 81.42C203.105 81.1 203.319 80.7667 203.452 80.42L204.112 77.2C204.059 76.72 203.899 76.2867 203.632 75.9C203.365 75.5133 203.032 75.2 202.632 74.96C202.232 74.72 201.792 74.6 201.312 74.6C200.712 74.6 200.145 74.7467 199.612 75.04C199.079 75.3333 198.599 75.7267 198.172 76.22C197.759 76.7133 197.432 77.26 197.192 77.86C196.952 78.4467 196.832 79.04 196.832 79.64C196.832 80.2533 196.952 80.8133 197.192 81.32C197.432 81.8267 197.759 82.2333 198.172 82.54C198.599 82.8467 199.099 83 199.672 83ZM210.585 84.12C209.625 84.12 208.832 83.94 208.205 83.58C207.592 83.2067 207.172 82.6867 206.945 82.02L208.105 81.52C208.279 81.9867 208.585 82.3533 209.025 82.62C209.479 82.8733 210.045 83 210.725 83C211.539 83 212.219 82.8133 212.765 82.44C213.312 82.0667 213.639 81.5667 213.745 80.94C213.852 80.3667 213.739 79.9067 213.405 79.56C213.085 79.2133 212.585 79.0333 211.905 79.02H210.525L210.725 78.08H212.125C212.419 78.08 212.692 78.0067 212.945 77.86C213.212 77.7 213.439 77.4933 213.625 77.24C213.825 76.9867 213.945 76.7067 213.985 76.4C214.092 75.8533 213.985 75.4133 213.665 75.08C213.345 74.7333 212.825 74.56 212.105 74.56C211.532 74.56 211.025 74.68 210.585 74.92C210.145 75.1467 209.779 75.4867 209.485 75.94L208.505 75.38C208.919 74.7667 209.452 74.2867 210.105 73.94C210.772 73.5933 211.512 73.42 212.325 73.42C213.005 73.42 213.585 73.54 214.065 73.78C214.545 74.0067 214.892 74.34 215.105 74.78C215.332 75.2067 215.399 75.7267 215.305 76.34C215.239 76.8333 215.052 77.2667 214.745 77.64C214.439 78.0133 214.059 78.2933 213.605 78.48C214.192 78.6667 214.612 78.9933 214.865 79.46C215.119 79.9267 215.185 80.4733 215.065 81.1C214.959 81.7267 214.699 82.2667 214.285 82.72C213.872 83.1733 213.345 83.52 212.705 83.76C212.079 84 211.372 84.12 210.585 84.12ZM219.011 73.58H220.211L219.791 75.6C220.325 74.9467 220.958 74.42 221.691 74.02C222.438 73.6067 223.185 73.4 223.931 73.4C224.705 73.4 225.365 73.6067 225.911 74.02C226.471 74.42 226.898 74.9533 227.191 75.62C227.485 76.2867 227.631 77.0067 227.631 77.78C227.631 78.5933 227.478 79.3867 227.171 80.16C226.865 80.92 226.445 81.6067 225.911 82.22C225.378 82.8333 224.765 83.32 224.071 83.68C223.378 84.0267 222.638 84.2 221.851 84.2C221.025 84.2 220.338 83.9733 219.791 83.52C219.245 83.0667 218.851 82.5067 218.611 81.84L217.251 88.26H215.891L219.011 73.58ZM221.731 83C222.331 83 222.898 82.8533 223.431 82.56C223.978 82.2667 224.458 81.88 224.871 81.4C225.285 80.92 225.611 80.38 225.851 79.78C226.091 79.18 226.211 78.5867 226.211 78C226.211 77.3733 226.091 76.8067 225.851 76.3C225.625 75.78 225.298 75.3667 224.871 75.06C224.445 74.7533 223.938 74.6 223.351 74.6C223.031 74.6 222.678 74.6667 222.291 74.8C221.918 74.9333 221.545 75.1267 221.171 75.38C220.811 75.62 220.491 75.8933 220.211 76.2C219.931 76.5067 219.725 76.8333 219.591 77.18L218.911 80.38C219.005 80.8733 219.178 81.32 219.431 81.72C219.698 82.1067 220.025 82.42 220.411 82.66C220.811 82.8867 221.251 83 221.731 83ZM232.667 84.2C231.907 84.2 231.247 84 230.687 83.6C230.127 83.2 229.7 82.6667 229.407 82C229.113 81.3333 228.967 80.6133 228.967 79.84C228.967 79.0133 229.12 78.22 229.427 77.46C229.747 76.6867 230.173 76 230.707 75.4C231.253 74.7867 231.873 74.3 232.567 73.94C233.26 73.58 233.987 73.4 234.747 73.4C235.587 73.4 236.28 73.6333 236.827 74.1C237.373 74.5533 237.76 75.1067 237.987 75.76L238.467 73.58H239.827L237.987 82.22C237.973 82.26 237.96 82.3067 237.947 82.36C237.947 82.4 237.947 82.44 237.947 82.48C237.947 82.6933 238.073 82.8 238.327 82.8L238.067 84C237.96 84.0133 237.86 84.0267 237.767 84.04C237.687 84.0533 237.607 84.06 237.527 84.06C237.22 84.0467 236.987 83.9667 236.827 83.82C236.68 83.66 236.607 83.4733 236.607 83.26C236.607 83.18 236.613 83.0933 236.627 83C236.64 82.9067 236.66 82.78 236.687 82.62C236.727 82.46 236.773 82.2467 236.827 81.98C236.293 82.66 235.647 83.2 234.887 83.6C234.14 84 233.4 84.2 232.667 84.2ZM233.227 83C233.56 83 233.913 82.9333 234.287 82.8C234.673 82.6667 235.047 82.4867 235.407 82.26C235.767 82.02 236.087 81.74 236.367 81.42C236.66 81.1 236.873 80.7667 237.007 80.42L237.667 77.2C237.613 76.72 237.453 76.2867 237.187 75.9C236.92 75.5133 236.587 75.2 236.187 74.96C235.787 74.72 235.347 74.6 234.867 74.6C234.267 74.6 233.7 74.7467 233.167 75.04C232.633 75.3333 232.153 75.7267 231.727 76.22C231.313 76.7133 230.987 77.26 230.747 77.86C230.507 78.4467 230.387 79.04 230.387 79.64C230.387 80.2533 230.507 80.8133 230.747 81.32C230.987 81.8267 231.313 82.2333 231.727 82.54C232.153 82.8467 232.653 83 233.227 83ZM245.8 84.2C244.2 84.2 243.067 83.68 242.4 82.64C241.747 81.5867 241.58 80.16 241.9 78.36C242.22 76.52 242.647 75.0267 243.18 73.88C243.713 72.72 244.38 71.84 245.18 71.24C245.98 70.6267 246.933 70.2067 248.04 69.98C248.56 69.8733 249.06 69.7933 249.54 69.74C250.033 69.6733 250.467 69.5733 250.84 69.44C251.213 69.2933 251.48 69.0533 251.64 68.72L252.58 69.12C252.447 69.6267 252.193 70.0067 251.82 70.26C251.447 70.5133 250.96 70.7067 250.36 70.84C249.773 70.96 249.067 71.1 248.24 71.26C247.333 71.4333 246.573 71.7333 245.96 72.16C245.36 72.5867 244.86 73.1733 244.46 73.92C244.073 74.6533 243.733 75.58 243.44 76.7C243.907 75.9267 244.507 75.3333 245.24 74.92C245.987 74.4933 246.807 74.28 247.7 74.28C248.647 74.28 249.413 74.4867 250 74.9C250.6 75.3133 251.02 75.8867 251.26 76.62C251.5 77.3533 251.547 78.2 251.4 79.16C251.24 80.1733 250.913 81.06 250.42 81.82C249.94 82.5667 249.307 83.1533 248.52 83.58C247.747 83.9933 246.84 84.2 245.8 84.2ZM245.92 83.06C247.04 83.06 247.947 82.7133 248.64 82.02C249.347 81.3133 249.8 80.3867 250 79.24C250.173 78.12 250.027 77.2067 249.56 76.5C249.093 75.78 248.313 75.42 247.22 75.42C246.567 75.42 245.953 75.58 245.38 75.9C244.82 76.2067 244.34 76.6467 243.94 77.22C243.553 77.7933 243.293 78.4667 243.16 79.24C243.04 79.92 243.06 80.5533 243.22 81.14C243.393 81.7267 243.707 82.1933 244.16 82.54C244.613 82.8867 245.2 83.06 245.92 83.06ZM257.613 84.2C256.613 84.2 255.76 83.9533 255.053 83.46C254.346 82.9533 253.826 82.2933 253.493 81.48C253.173 80.6667 253.08 79.78 253.213 78.82C253.32 78.0733 253.54 77.38 253.873 76.74C254.22 76.0867 254.66 75.5133 255.193 75.02C255.726 74.5133 256.326 74.12 256.993 73.84C257.673 73.5467 258.386 73.4 259.133 73.4C260.133 73.4 260.986 73.6533 261.693 74.16C262.4 74.6533 262.92 75.3067 263.253 76.12C263.586 76.9333 263.686 77.8333 263.553 78.82C263.46 79.54 263.24 80.2267 262.893 80.88C262.56 81.52 262.126 82.0933 261.593 82.6C261.073 83.0933 260.473 83.4867 259.793 83.78C259.113 84.06 258.386 84.2 257.613 84.2ZM257.773 83.06C258.293 83.06 258.793 82.9467 259.273 82.72C259.766 82.4933 260.213 82.18 260.613 81.78C261.013 81.38 261.346 80.9267 261.613 80.42C261.893 79.9 262.073 79.36 262.153 78.8C262.273 78.0133 262.206 77.3 261.953 76.66C261.7 76.0067 261.313 75.4933 260.793 75.12C260.286 74.7333 259.68 74.54 258.973 74.54C258.453 74.54 257.953 74.6533 257.473 74.88C256.993 75.1067 256.546 75.4133 256.133 75.8C255.733 76.1867 255.4 76.64 255.133 77.16C254.866 77.68 254.693 78.24 254.613 78.84C254.506 79.6133 254.58 80.3267 254.833 80.98C255.086 81.62 255.466 82.1267 255.973 82.5C256.493 82.8733 257.093 83.06 257.773 83.06ZM266.862 73.58H268.122L267.602 75.94C268.162 75.1533 268.822 74.5333 269.582 74.08C270.342 73.6267 271.109 73.4 271.882 73.4C272.402 73.4 272.842 73.5067 273.202 73.72C273.562 73.9333 273.829 74.24 274.002 74.64C274.189 75.04 274.276 75.5333 274.262 76.12C274.662 75.52 275.096 75.02 275.562 74.62C276.029 74.22 276.529 73.92 277.062 73.72C277.596 73.5067 278.122 73.4 278.642 73.4C279.202 73.4 279.649 73.5067 279.982 73.72C280.316 73.92 280.562 74.2133 280.722 74.6C280.882 74.9867 280.962 75.44 280.962 75.96C280.962 76.2533 280.942 76.56 280.902 76.88C280.862 77.2 280.802 77.54 280.722 77.9L279.422 84H278.062L279.282 78.18C279.416 77.5533 279.482 77.0133 279.482 76.56C279.482 75.9067 279.349 75.4267 279.082 75.12C278.816 74.8 278.422 74.64 277.902 74.64C277.409 74.64 276.922 74.7667 276.442 75.02C275.962 75.2733 275.516 75.6267 275.102 76.08C274.689 76.52 274.342 77.04 274.062 77.64L272.722 84H271.362L272.582 78.18C272.662 77.8467 272.716 77.5467 272.742 77.28C272.782 77.0133 272.802 76.76 272.802 76.52C272.802 75.88 272.669 75.4067 272.402 75.1C272.136 74.7933 271.742 74.64 271.222 74.64C270.489 74.64 269.769 74.9133 269.062 75.46C268.369 76.0067 267.802 76.7267 267.362 77.62L266.022 84H264.662L266.862 73.58ZM282.381 84L284.581 73.58H285.941L284.961 78.14H286.521C287.294 77.6733 288.008 77.0467 288.661 76.26C289.314 75.46 289.954 74.5667 290.581 73.58H292.041C291.308 74.7267 290.581 75.7267 289.861 76.58C289.154 77.4333 288.408 78.1267 287.621 78.66L290.481 84H288.981L286.441 79.22H284.721L283.721 84H282.381ZM291.048 87.38C291.608 87.2867 292.061 87.16 292.408 87C292.768 86.8533 293.081 86.6333 293.348 86.34C293.628 86.0467 293.934 85.6467 294.268 85.14L294.928 84.16L292.788 73.58H294.208L295.888 82.74L296.708 81.4C297.281 80.4667 297.768 79.6467 298.168 78.94C298.568 78.22 298.908 77.5733 299.188 77C299.481 76.4133 299.721 75.8467 299.908 75.3C300.094 74.7533 300.274 74.18 300.448 73.58H301.788C301.614 74.22 301.421 74.82 301.208 75.38C301.008 75.94 300.754 76.5267 300.448 77.14C300.154 77.74 299.781 78.4267 299.328 79.2C298.888 79.96 298.334 80.8733 297.668 81.94L296.048 84.52C295.594 85.2533 295.174 85.8667 294.788 86.36C294.401 86.8667 294.021 87.2667 293.648 87.56C293.288 87.8667 292.914 88.0867 292.528 88.22C292.141 88.3667 291.708 88.4533 291.228 88.48L291.048 87.38ZM121.912 108.2C121.072 108.2 120.352 108 119.752 107.6C119.152 107.2 118.692 106.667 118.372 106C118.065 105.333 117.912 104.593 117.912 103.78C117.912 102.94 118.072 102.14 118.392 101.38C118.712 100.607 119.152 99.9267 119.712 99.34C120.285 98.74 120.945 98.2667 121.692 97.92C122.452 97.5733 123.265 97.4 124.132 97.4C125.092 97.4 125.872 97.6267 126.472 98.08C127.085 98.52 127.485 99.12 127.672 99.88L126.272 100.3C126.099 99.7533 125.805 99.3333 125.392 99.04C124.992 98.7467 124.505 98.6 123.932 98.6C123.345 98.6 122.772 98.7333 122.212 99C121.665 99.2533 121.172 99.6133 120.732 100.08C120.305 100.547 119.959 101.08 119.692 101.68C119.439 102.28 119.312 102.92 119.312 103.6C119.312 104.253 119.425 104.833 119.652 105.34C119.892 105.847 120.219 106.253 120.632 106.56C121.059 106.853 121.539 107 122.072 107C122.499 107 122.925 106.92 123.352 106.76C123.792 106.6 124.185 106.387 124.532 106.12C124.879 105.84 125.132 105.54 125.292 105.22L126.552 105.62C126.272 106.113 125.885 106.56 125.392 106.96C124.899 107.347 124.352 107.653 123.752 107.88C123.152 108.093 122.539 108.2 121.912 108.2ZM132.12 108.2C131.36 108.2 130.7 108 130.14 107.6C129.58 107.2 129.153 106.667 128.86 106C128.567 105.333 128.42 104.613 128.42 103.84C128.42 103.013 128.573 102.22 128.88 101.46C129.2 100.687 129.627 100 130.16 99.4C130.707 98.7867 131.327 98.3 132.02 97.94C132.713 97.58 133.44 97.4 134.2 97.4C135.04 97.4 135.733 97.6333 136.28 98.1C136.827 98.5533 137.213 99.1067 137.44 99.76L137.92 97.58H139.28L137.44 106.22C137.427 106.26 137.413 106.307 137.4 106.36C137.4 106.4 137.4 106.44 137.4 106.48C137.4 106.693 137.527 106.8 137.78 106.8L137.52 108C137.413 108.013 137.313 108.027 137.22 108.04C137.14 108.053 137.06 108.06 136.98 108.06C136.673 108.047 136.44 107.967 136.28 107.82C136.133 107.66 136.06 107.473 136.06 107.26C136.06 107.18 136.067 107.093 136.08 107C136.093 106.907 136.113 106.78 136.14 106.62C136.18 106.46 136.227 106.247 136.28 105.98C135.747 106.66 135.1 107.2 134.34 107.6C133.593 108 132.853 108.2 132.12 108.2ZM132.68 107C133.013 107 133.367 106.933 133.74 106.8C134.127 106.667 134.5 106.487 134.86 106.26C135.22 106.02 135.54 105.74 135.82 105.42C136.113 105.1 136.327 104.767 136.46 104.42L137.12 101.2C137.067 100.72 136.907 100.287 136.64 99.9C136.373 99.5133 136.04 99.2 135.64 98.96C135.24 98.72 134.8 98.6 134.32 98.6C133.72 98.6 133.153 98.7467 132.62 99.04C132.087 99.3333 131.607 99.7267 131.18 100.22C130.767 100.713 130.44 101.26 130.2 101.86C129.96 102.447 129.84 103.04 129.84 103.64C129.84 104.253 129.96 104.813 130.2 105.32C130.44 105.827 130.767 106.233 131.18 106.54C131.607 106.847 132.107 107 132.68 107ZM143.053 108.2C141.426 108.2 140.613 107.307 140.613 105.52C140.613 105.253 140.633 104.973 140.673 104.68C140.713 104.373 140.766 104.047 140.833 103.7L142.153 97.58H143.493L142.253 103.46C142.12 104.06 142.053 104.58 142.053 105.02C142.053 106.34 142.626 107 143.773 107C144.28 107 144.786 106.887 145.293 106.66C145.8 106.42 146.28 106.087 146.733 105.66C147.2 105.22 147.586 104.713 147.893 104.14L149.293 97.58H150.653L148.833 106.08C148.82 106.16 148.806 106.233 148.793 106.3C148.78 106.367 148.773 106.42 148.773 106.46C148.773 106.687 148.9 106.8 149.153 106.8L148.893 108C148.786 108.013 148.686 108.027 148.593 108.04C148.5 108.053 148.413 108.053 148.333 108.04C148.053 108.027 147.84 107.953 147.693 107.82C147.546 107.673 147.473 107.487 147.473 107.26C147.473 107.193 147.48 107.113 147.493 107.02C147.506 106.913 147.533 106.753 147.573 106.54C147.613 106.327 147.673 106.027 147.753 105.64C147.14 106.44 146.413 107.067 145.573 107.52C144.746 107.973 143.906 108.2 143.053 108.2ZM146.633 95.88C146.073 95.88 145.606 95.8 145.233 95.64C144.873 95.48 144.606 95.2667 144.433 95C144.273 94.72 144.206 94.42 144.233 94.1H145.013C145 94.38 145.113 94.6333 145.353 94.86C145.593 95.0733 146.033 95.18 146.673 95.18C147.3 95.18 147.74 95.08 147.993 94.88C148.26 94.6667 148.446 94.4067 148.553 94.1H149.333C149.32 94.42 149.206 94.72 148.993 95C148.78 95.2667 148.473 95.48 148.073 95.64C147.686 95.8 147.206 95.88 146.633 95.88ZM153.64 97.58H154.9L154.38 99.94C154.94 99.1533 155.6 98.5333 156.36 98.08C157.12 97.6267 157.886 97.4 158.66 97.4C159.18 97.4 159.62 97.5067 159.98 97.72C160.34 97.9333 160.606 98.24 160.78 98.64C160.966 99.04 161.053 99.5333 161.04 100.12C161.44 99.52 161.873 99.02 162.34 98.62C162.806 98.22 163.306 97.92 163.84 97.72C164.373 97.5067 164.9 97.4 165.42 97.4C165.98 97.4 166.426 97.5067 166.76 97.72C167.093 97.92 167.34 98.2133 167.5 98.6C167.66 98.9867 167.74 99.44 167.74 99.96C167.74 100.253 167.72 100.56 167.68 100.88C167.64 101.2 167.58 101.54 167.5 101.9L166.2 108H164.84L166.06 102.18C166.193 101.553 166.26 101.013 166.26 100.56C166.26 99.9067 166.126 99.4267 165.86 99.12C165.593 98.8 165.2 98.64 164.68 98.64C164.186 98.64 163.7 98.7667 163.22 99.02C162.74 99.2733 162.293 99.6267 161.88 100.08C161.466 100.52 161.12 101.04 160.84 101.64L159.5 108H158.14L159.36 102.18C159.44 101.847 159.493 101.547 159.52 101.28C159.56 101.013 159.58 100.76 159.58 100.52C159.58 99.88 159.446 99.4067 159.18 99.1C158.913 98.7933 158.52 98.64 158 98.64C157.266 98.64 156.546 98.9133 155.84 99.46C155.146 100.007 154.58 100.727 154.14 101.62L152.8 108H151.44L153.64 97.58ZM173.018 108.2C172.258 108.2 171.598 108 171.038 107.6C170.478 107.2 170.052 106.667 169.758 106C169.465 105.333 169.318 104.613 169.318 103.84C169.318 103.013 169.472 102.22 169.778 101.46C170.098 100.687 170.525 100 171.058 99.4C171.605 98.7867 172.225 98.3 172.918 97.94C173.612 97.58 174.338 97.4 175.098 97.4C175.938 97.4 176.632 97.6333 177.178 98.1C177.725 98.5533 178.112 99.1067 178.338 99.76L178.818 97.58H180.178L178.338 106.22C178.325 106.26 178.312 106.307 178.298 106.36C178.298 106.4 178.298 106.44 178.298 106.48C178.298 106.693 178.425 106.8 178.678 106.8L178.418 108C178.312 108.013 178.212 108.027 178.118 108.04C178.038 108.053 177.958 108.06 177.878 108.06C177.572 108.047 177.338 107.967 177.178 107.82C177.032 107.66 176.958 107.473 176.958 107.26C176.958 107.18 176.965 107.093 176.978 107C176.992 106.907 177.012 106.78 177.038 106.62C177.078 106.46 177.125 106.247 177.178 105.98C176.645 106.66 175.998 107.2 175.238 107.6C174.492 108 173.752 108.2 173.018 108.2ZM173.578 107C173.912 107 174.265 106.933 174.638 106.8C175.025 106.667 175.398 106.487 175.758 106.26C176.118 106.02 176.438 105.74 176.718 105.42C177.012 105.1 177.225 104.767 177.358 104.42L178.018 101.2C177.965 100.72 177.805 100.287 177.538 99.9C177.272 99.5133 176.938 99.2 176.538 98.96C176.138 98.72 175.698 98.6 175.218 98.6C174.618 98.6 174.052 98.7467 173.518 99.04C172.985 99.3333 172.505 99.7267 172.078 100.22C171.665 100.713 171.338 101.26 171.098 101.86C170.858 102.447 170.738 103.04 170.738 103.64C170.738 104.253 170.858 104.813 171.098 105.32C171.338 105.827 171.665 106.233 172.078 106.54C172.505 106.847 173.005 107 173.578 107ZM186.092 108L188.292 97.58H189.652L188.672 102.12H194.652L195.592 97.58H196.952L194.752 108H193.392L194.412 103.2H188.452L187.452 108H186.092ZM201.495 108.2C200.735 108.2 200.075 108 199.515 107.6C198.955 107.2 198.528 106.667 198.235 106C197.942 105.333 197.795 104.613 197.795 103.84C197.795 103.013 197.948 102.22 198.255 101.46C198.575 100.687 199.002 100 199.535 99.4C200.082 98.7867 200.702 98.3 201.395 97.94C202.088 97.58 202.815 97.4 203.575 97.4C204.415 97.4 205.108 97.6333 205.655 98.1C206.202 98.5533 206.588 99.1067 206.815 99.76L207.295 97.58H208.655L206.815 106.22C206.802 106.26 206.788 106.307 206.775 106.36C206.775 106.4 206.775 106.44 206.775 106.48C206.775 106.693 206.902 106.8 207.155 106.8L206.895 108C206.788 108.013 206.688 108.027 206.595 108.04C206.515 108.053 206.435 108.06 206.355 108.06C206.048 108.047 205.815 107.967 205.655 107.82C205.508 107.66 205.435 107.473 205.435 107.26C205.435 107.18 205.442 107.093 205.455 107C205.468 106.907 205.488 106.78 205.515 106.62C205.555 106.46 205.602 106.247 205.655 105.98C205.122 106.66 204.475 107.2 203.715 107.6C202.968 108 202.228 108.2 201.495 108.2ZM202.055 107C202.388 107 202.742 106.933 203.115 106.8C203.502 106.667 203.875 106.487 204.235 106.26C204.595 106.02 204.915 105.74 205.195 105.42C205.488 105.1 205.702 104.767 205.835 104.42L206.495 101.2C206.442 100.72 206.282 100.287 206.015 99.9C205.748 99.5133 205.415 99.2 205.015 98.96C204.615 98.72 204.175 98.6 203.695 98.6C203.095 98.6 202.528 98.7467 201.995 99.04C201.462 99.3333 200.982 99.7267 200.555 100.22C200.142 100.713 199.815 101.26 199.575 101.86C199.335 102.447 199.215 103.04 199.215 103.64C199.215 104.253 199.335 104.813 199.575 105.32C199.815 105.827 200.142 106.233 200.555 106.54C200.982 106.847 201.482 107 202.055 107ZM220.183 95.04H215.423L215.683 93.8H226.623L226.363 95.04H221.583L218.823 108H217.443L220.183 95.04ZM228.764 93.82H230.144L227.124 108H225.744L228.764 93.82ZM233.666 93.8H235.046L232.286 106.76H240.046L239.786 108H230.646L233.666 93.8ZM244.799 93.8H249.399C250.585 93.8 251.559 94.0467 252.319 94.54C253.079 95.02 253.645 95.6733 254.019 96.5C254.392 97.3133 254.579 98.2267 254.579 99.24C254.579 100.493 254.372 101.653 253.959 102.72C253.545 103.787 252.972 104.72 252.239 105.52C251.505 106.307 250.639 106.92 249.639 107.36C248.639 107.787 247.552 108 246.379 108H241.779L244.799 93.8ZM246.639 106.76C247.639 106.76 248.539 106.56 249.339 106.16C250.152 105.76 250.839 105.22 251.399 104.54C251.959 103.86 252.385 103.087 252.679 102.22C252.985 101.34 253.139 100.42 253.139 99.46C253.139 98.5933 252.985 97.8333 252.679 97.18C252.385 96.5133 251.939 95.9933 251.339 95.62C250.752 95.2333 250.012 95.04 249.119 95.04H245.919L243.419 106.76H246.639ZM262.281 93.8H263.481L266.041 108H264.561L263.781 103.56H257.801L255.161 108H253.661L262.281 93.8ZM263.701 102.46L262.541 95.44L258.321 102.46H263.701Z" fill="white"/>
</svg>
