<svg width="383" height="170" viewBox="0 0 383 170" fill="none" xmlns="http://www.w3.org/2000/svg">
<path d="M181.461 5.82641C187.669 2.22355 195.331 2.22354 201.539 5.82641L216.411 14.4575C220.866 17.0429 226.146 17.81 231.153 16.5989L255.56 10.6943C263.707 8.72353 272.157 12.5 276.123 19.8839V19.8839C279.444 26.069 285.993 29.8284 293.009 29.5783L320.156 28.6107C326.526 28.3836 330.982 34.8425 328.507 40.717V40.717C326.305 45.9431 329.597 51.8478 335.199 52.724L353.322 55.5581C360.423 56.6686 362.389 65.9667 356.345 69.8568V69.8568C351.054 73.2621 351.749 81.2039 357.55 83.6397L358.905 84.2085C366.443 87.3737 365.717 98.2847 357.826 100.423L349.645 102.641C344.004 104.17 342.022 111.155 346.019 115.419V115.419C350.514 120.214 347.374 128.075 340.812 128.454L315.883 129.893C309.883 130.239 305.099 135.034 304.766 141.035V141.035C304.386 147.904 298.24 152.997 291.42 152.095L263.183 148.36C257.25 147.576 251.278 149.489 246.906 153.574L240.425 159.63C234.849 164.84 226.794 166.423 219.661 163.71L198.61 155.704C194.03 153.962 188.97 153.962 184.39 155.704L163.339 163.71C156.206 166.423 148.151 164.84 142.575 159.63L136.094 153.574C131.722 149.489 125.75 147.576 119.817 148.36L91.58 152.095C84.7599 152.997 78.6143 147.904 78.2338 141.035V141.035C77.9014 135.034 73.1174 130.239 67.1174 129.893L42.1878 128.454C35.6265 128.075 32.4863 120.214 36.9811 115.419V115.419C40.9781 111.155 38.9958 104.17 33.3548 102.641L25.174 100.423C17.2827 98.2847 16.5569 87.3737 24.0953 84.2085L25.4501 83.6397C31.2515 81.2039 31.9456 73.2621 26.6548 69.8568V69.8568C20.6108 65.9667 22.5769 56.6686 29.6782 55.5581L47.8006 52.724C53.4035 51.8478 56.6946 45.9431 54.4929 40.717V40.717C52.0181 34.8425 56.4736 28.3836 62.844 28.6107L89.9907 29.5783C97.007 29.8284 103.556 26.069 106.877 19.8839V19.8839C110.843 12.5 119.293 8.72353 127.44 10.6943L151.847 16.5989C156.854 17.81 162.134 17.0429 166.589 14.4575L181.461 5.82641Z" fill="#FF7262"/>
<path d="M80.5191 90L83.5191 75.8H94.2191L91.2191 90H89.8391L92.5791 77.04H84.6391L81.9191 90H80.5191ZM99.4783 90.2C98.4783 90.2 97.6249 89.9533 96.9183 89.46C96.2116 88.9533 95.6916 88.2933 95.3583 87.48C95.0383 86.6667 94.9449 85.78 95.0783 84.82C95.1849 84.0733 95.4049 83.38 95.7383 82.74C96.0849 82.0867 96.5249 81.5133 97.0583 81.02C97.5916 80.5133 98.1916 80.12 98.8583 79.84C99.5383 79.5467 100.252 79.4 100.998 79.4C101.998 79.4 102.852 79.6533 103.558 80.16C104.265 80.6533 104.785 81.3067 105.118 82.12C105.452 82.9333 105.552 83.8333 105.418 84.82C105.325 85.54 105.105 86.2267 104.758 86.88C104.425 87.52 103.992 88.0933 103.458 88.6C102.938 89.0933 102.338 89.4867 101.658 89.78C100.978 90.06 100.252 90.2 99.4783 90.2ZM99.6383 89.06C100.158 89.06 100.658 88.9467 101.138 88.72C101.632 88.4933 102.078 88.18 102.478 87.78C102.878 87.38 103.212 86.9267 103.478 86.42C103.758 85.9 103.938 85.36 104.018 84.8C104.138 84.0133 104.072 83.3 103.818 82.66C103.565 82.0067 103.178 81.4933 102.658 81.12C102.152 80.7333 101.545 80.54 100.838 80.54C100.318 80.54 99.8183 80.6533 99.3383 80.88C98.8583 81.1067 98.4116 81.4133 97.9983 81.8C97.5983 82.1867 97.2649 82.64 96.9983 83.16C96.7316 83.68 96.5583 84.24 96.4783 84.84C96.3716 85.6133 96.4449 86.3267 96.6983 86.98C96.9516 87.62 97.3316 88.1267 97.8383 88.5C98.3583 88.8733 98.9583 89.06 99.6383 89.06ZM110.848 90.2C110.008 90.2 109.288 90 108.688 89.6C108.088 89.2 107.628 88.6667 107.308 88C107.001 87.3333 106.848 86.5933 106.848 85.78C106.848 84.94 107.008 84.14 107.328 83.38C107.648 82.6067 108.088 81.9267 108.648 81.34C109.221 80.74 109.881 80.2667 110.628 79.92C111.388 79.5733 112.201 79.4 113.068 79.4C114.028 79.4 114.808 79.6267 115.408 80.08C116.021 80.52 116.421 81.12 116.608 81.88L115.208 82.3C115.034 81.7533 114.741 81.3333 114.328 81.04C113.928 80.7467 113.441 80.6 112.868 80.6C112.281 80.6 111.708 80.7333 111.148 81C110.601 81.2533 110.108 81.6133 109.668 82.08C109.241 82.5467 108.894 83.08 108.628 83.68C108.374 84.28 108.248 84.92 108.248 85.6C108.248 86.2533 108.361 86.8333 108.588 87.34C108.828 87.8467 109.154 88.2533 109.568 88.56C109.994 88.8533 110.474 89 111.008 89C111.434 89 111.861 88.92 112.288 88.76C112.728 88.6 113.121 88.3867 113.468 88.12C113.814 87.84 114.068 87.54 114.228 87.22L115.488 87.62C115.208 88.1133 114.821 88.56 114.328 88.96C113.834 89.3467 113.288 89.6533 112.688 89.88C112.088 90.0933 111.474 90.2 110.848 90.2ZM117.215 90L119.415 79.58H120.915L123.295 86.58L128.675 79.58H130.255L128.055 90H126.755L128.535 81.52L123.515 88.14H122.635L120.315 81.48L118.515 90H117.215ZM135.826 90.2C134.826 90.2 133.973 89.9533 133.266 89.46C132.559 88.9533 132.039 88.2933 131.706 87.48C131.386 86.6667 131.293 85.78 131.426 84.82C131.533 84.0733 131.753 83.38 132.086 82.74C132.433 82.0867 132.873 81.5133 133.406 81.02C133.939 80.5133 134.539 80.12 135.206 79.84C135.886 79.5467 136.599 79.4 137.346 79.4C138.346 79.4 139.199 79.6533 139.906 80.16C140.613 80.6533 141.133 81.3067 141.466 82.12C141.799 82.9333 141.899 83.8333 141.766 84.82C141.673 85.54 141.453 86.2267 141.106 86.88C140.773 87.52 140.339 88.0933 139.806 88.6C139.286 89.0933 138.686 89.4867 138.006 89.78C137.326 90.06 136.599 90.2 135.826 90.2ZM135.986 89.06C136.506 89.06 137.006 88.9467 137.486 88.72C137.979 88.4933 138.426 88.18 138.826 87.78C139.226 87.38 139.559 86.9267 139.826 86.42C140.106 85.9 140.286 85.36 140.366 84.8C140.486 84.0133 140.419 83.3 140.166 82.66C139.913 82.0067 139.526 81.4933 139.006 81.12C138.499 80.7333 137.893 80.54 137.186 80.54C136.666 80.54 136.166 80.6533 135.686 80.88C135.206 81.1067 134.759 81.4133 134.346 81.8C133.946 82.1867 133.613 82.64 133.346 83.16C133.079 83.68 132.906 84.24 132.826 84.84C132.719 85.6133 132.793 86.3267 133.046 86.98C133.299 87.62 133.679 88.1267 134.186 88.5C134.706 88.8733 135.306 89.06 135.986 89.06ZM145.075 79.58H146.335L145.815 81.94C146.375 81.1533 147.035 80.5333 147.795 80.08C148.555 79.6267 149.322 79.4 150.095 79.4C150.615 79.4 151.055 79.5067 151.415 79.72C151.775 79.9333 152.042 80.24 152.215 80.64C152.402 81.04 152.489 81.5333 152.475 82.12C152.875 81.52 153.309 81.02 153.775 80.62C154.242 80.22 154.742 79.92 155.275 79.72C155.809 79.5067 156.335 79.4 156.855 79.4C157.415 79.4 157.862 79.5067 158.195 79.72C158.529 79.92 158.775 80.2133 158.935 80.6C159.095 80.9867 159.175 81.44 159.175 81.96C159.175 82.2533 159.155 82.56 159.115 82.88C159.075 83.2 159.015 83.54 158.935 83.9L157.635 90H156.275L157.495 84.18C157.629 83.5533 157.695 83.0133 157.695 82.56C157.695 81.9067 157.562 81.4267 157.295 81.12C157.029 80.8 156.635 80.64 156.115 80.64C155.622 80.64 155.135 80.7667 154.655 81.02C154.175 81.2733 153.729 81.6267 153.315 82.08C152.902 82.52 152.555 83.04 152.275 83.64L150.935 90H149.575L150.795 84.18C150.875 83.8467 150.929 83.5467 150.955 83.28C150.995 83.0133 151.015 82.76 151.015 82.52C151.015 81.88 150.882 81.4067 150.615 81.1C150.349 80.7933 149.955 80.64 149.435 80.64C148.702 80.64 147.982 80.9133 147.275 81.46C146.582 82.0067 146.015 82.7267 145.575 83.62L144.235 90H142.875L145.075 79.58ZM162.654 79.58H163.854L163.434 81.6C163.967 80.9467 164.601 80.42 165.334 80.02C166.081 79.6067 166.827 79.4 167.574 79.4C168.347 79.4 169.007 79.6067 169.554 80.02C170.114 80.42 170.541 80.9533 170.834 81.62C171.127 82.2867 171.274 83.0067 171.274 83.78C171.274 84.5933 171.121 85.3867 170.814 86.16C170.507 86.92 170.087 87.6067 169.554 88.22C169.021 88.8333 168.407 89.32 167.714 89.68C167.021 90.0267 166.281 90.2 165.494 90.2C164.667 90.2 163.981 89.9733 163.434 89.52C162.887 89.0667 162.494 88.5067 162.254 87.84L160.894 94.26H159.534L162.654 79.58ZM165.374 89C165.974 89 166.541 88.8533 167.074 88.56C167.621 88.2667 168.101 87.88 168.514 87.4C168.927 86.92 169.254 86.38 169.494 85.78C169.734 85.18 169.854 84.5867 169.854 84C169.854 83.3733 169.734 82.8067 169.494 82.3C169.267 81.78 168.941 81.3667 168.514 81.06C168.087 80.7533 167.581 80.6 166.994 80.6C166.674 80.6 166.321 80.6667 165.934 80.8C165.561 80.9333 165.187 81.1267 164.814 81.38C164.454 81.62 164.134 81.8933 163.854 82.2C163.574 82.5067 163.367 82.8333 163.234 83.18L162.554 86.38C162.647 86.8733 162.821 87.32 163.074 87.72C163.341 88.1067 163.667 88.42 164.054 88.66C164.454 88.8867 164.894 89 165.374 89ZM177.129 90.2C176.156 90.2 175.336 89.9667 174.669 89.5C174.016 89.02 173.543 88.3933 173.249 87.62C172.956 86.8333 172.849 85.98 172.929 85.06C173.009 84.3133 173.209 83.6 173.529 82.92C173.849 82.24 174.269 81.64 174.789 81.12C175.323 80.5867 175.936 80.1667 176.629 79.86C177.336 79.5533 178.096 79.4 178.909 79.4C179.483 79.4 180.029 79.5067 180.549 79.72C181.083 79.92 181.516 80.2333 181.849 80.66C182.183 81.0733 182.356 81.5867 182.369 82.2C182.383 83.2133 181.949 83.9933 181.069 84.54C180.189 85.0867 178.803 85.36 176.909 85.36C176.403 85.36 175.869 85.3533 175.309 85.34C174.749 85.3133 174.129 85.2733 173.449 85.22L173.809 84.18C174.409 84.22 174.956 84.2533 175.449 84.28C175.943 84.2933 176.429 84.3 176.909 84.3C177.949 84.3 178.763 84.2133 179.349 84.04C179.949 83.8667 180.369 83.6267 180.609 83.32C180.863 83 180.976 82.6333 180.949 82.22C180.936 81.8467 180.816 81.5333 180.589 81.28C180.376 81.0267 180.103 80.84 179.769 80.72C179.436 80.6 179.076 80.54 178.689 80.54C178.116 80.54 177.569 80.66 177.049 80.9C176.543 81.14 176.089 81.4733 175.689 81.9C175.289 82.3133 174.963 82.7933 174.709 83.34C174.456 83.8867 174.309 84.46 174.269 85.06C174.203 85.82 174.276 86.5067 174.489 87.12C174.703 87.72 175.049 88.1933 175.529 88.54C176.023 88.8867 176.629 89.06 177.349 89.06C177.803 89.06 178.209 88.9933 178.569 88.86C178.943 88.7267 179.263 88.5667 179.529 88.38C179.809 88.18 180.029 87.9867 180.189 87.8C180.349 87.6133 180.456 87.4667 180.509 87.36L181.709 87.76C181.643 87.88 181.503 88.0733 181.289 88.34C181.076 88.6067 180.776 88.88 180.389 89.16C180.016 89.44 179.556 89.6867 179.009 89.9C178.476 90.1 177.849 90.2 177.129 90.2ZM185.505 79.58H186.765L186.245 81.94C186.805 81.1533 187.465 80.5333 188.225 80.08C188.985 79.6267 189.752 79.4 190.525 79.4C191.045 79.4 191.485 79.5067 191.845 79.72C192.205 79.9333 192.472 80.24 192.645 80.64C192.832 81.04 192.918 81.5333 192.905 82.12C193.305 81.52 193.738 81.02 194.205 80.62C194.672 80.22 195.172 79.92 195.705 79.72C196.238 79.5067 196.765 79.4 197.285 79.4C197.845 79.4 198.292 79.5067 198.625 79.72C198.958 79.92 199.205 80.2133 199.365 80.6C199.525 80.9867 199.605 81.44 199.605 81.96C199.605 82.2533 199.585 82.56 199.545 82.88C199.505 83.2 199.445 83.54 199.365 83.9L198.065 90H196.705L197.925 84.18C198.058 83.5533 198.125 83.0133 198.125 82.56C198.125 81.9067 197.992 81.4267 197.725 81.12C197.458 80.8 197.065 80.64 196.545 80.64C196.052 80.64 195.565 80.7667 195.085 81.02C194.605 81.2733 194.158 81.6267 193.745 82.08C193.332 82.52 192.985 83.04 192.705 83.64L191.365 90H190.005L191.225 84.18C191.305 83.8467 191.358 83.5467 191.385 83.28C191.425 83.0133 191.445 82.76 191.445 82.52C191.445 81.88 191.312 81.4067 191.045 81.1C190.778 80.7933 190.385 80.64 189.865 80.64C189.132 80.64 188.412 80.9133 187.705 81.46C187.012 82.0067 186.445 82.7267 186.005 83.62L184.665 90H183.305L185.505 79.58ZM205.104 90.14C204.29 90.14 203.584 89.9867 202.984 89.68C202.397 89.3733 201.97 88.9133 201.704 88.3C201.45 87.6733 201.417 86.88 201.604 85.92C201.83 84.8667 202.064 83.8133 202.304 82.76C202.557 81.6933 202.804 80.6333 203.044 79.58H204.404C204.164 80.6467 203.917 81.7133 203.664 82.78C203.424 83.8467 203.19 84.9133 202.964 85.98C202.83 86.6733 202.85 87.2467 203.024 87.7C203.197 88.1533 203.477 88.4867 203.864 88.7C204.264 88.9133 204.73 89.02 205.264 89.02C206.09 89.02 206.764 88.8 207.284 88.36C207.817 87.9067 208.137 87.3 208.244 86.54C208.364 85.7667 208.217 85.16 207.804 84.72C207.39 84.28 206.657 84.06 205.604 84.06H202.884L203.064 82.96H205.944C206.61 82.96 207.19 83.0533 207.684 83.24C208.19 83.4133 208.597 83.6667 208.904 84C209.224 84.3333 209.444 84.7267 209.564 85.18C209.697 85.6333 209.724 86.14 209.644 86.7C209.524 87.46 209.257 88.1 208.844 88.62C208.43 89.1267 207.904 89.5067 207.264 89.76C206.637 90.0133 205.917 90.14 205.104 90.14ZM231.039 90H229.779L230.299 87.64C229.739 88.4133 229.079 89.0333 228.319 89.5C227.573 89.9533 226.806 90.18 226.019 90.18C225.513 90.18 225.073 90.0733 224.699 89.86C224.339 89.6467 224.066 89.34 223.879 88.94C223.706 88.5267 223.626 88.0333 223.639 87.46C223.253 88.0467 222.819 88.5467 222.339 88.96C221.859 89.36 221.359 89.6667 220.839 89.88C220.319 90.08 219.793 90.18 219.259 90.18C218.699 90.18 218.253 90.08 217.919 89.88C217.586 89.6667 217.339 89.3667 217.179 88.98C217.019 88.5933 216.939 88.14 216.939 87.62C216.939 87.3267 216.959 87.02 216.999 86.7C217.039 86.38 217.099 86.04 217.179 85.68L218.479 79.58H219.839L218.619 85.4C218.486 86.0267 218.419 86.5667 218.419 87.02C218.419 87.6733 218.553 88.16 218.819 88.48C219.086 88.7867 219.479 88.94 219.999 88.94C220.493 88.94 220.979 88.8133 221.459 88.56C221.939 88.3067 222.386 87.9533 222.799 87.5C223.213 87.0467 223.559 86.5267 223.839 85.94L225.179 79.58H226.539L225.319 85.4C225.253 85.7333 225.199 86.0333 225.159 86.3C225.119 86.5667 225.099 86.82 225.099 87.06C225.099 87.7 225.233 88.1733 225.499 88.48C225.779 88.7867 226.173 88.94 226.679 88.94C227.426 88.94 228.146 88.6667 228.839 88.12C229.533 87.56 230.099 86.84 230.539 85.96L231.879 79.58H233.239L231.039 90ZM237.618 90.2C236.858 90.2 236.198 90 235.638 89.6C235.078 89.2 234.651 88.6667 234.358 88C234.065 87.3333 233.918 86.6133 233.918 85.84C233.918 85.0133 234.071 84.22 234.378 83.46C234.698 82.6867 235.125 82 235.658 81.4C236.205 80.7867 236.825 80.3 237.518 79.94C238.211 79.58 238.938 79.4 239.698 79.4C240.538 79.4 241.231 79.6333 241.778 80.1C242.325 80.5533 242.711 81.1067 242.938 81.76L243.418 79.58H244.778L242.938 88.22C242.925 88.26 242.911 88.3067 242.898 88.36C242.898 88.4 242.898 88.44 242.898 88.48C242.898 88.6933 243.025 88.8 243.278 88.8L243.018 90C242.911 90.0133 242.811 90.0267 242.718 90.04C242.638 90.0533 242.558 90.06 242.478 90.06C242.171 90.0467 241.938 89.9667 241.778 89.82C241.631 89.66 241.558 89.4733 241.558 89.26C241.558 89.18 241.565 89.0933 241.578 89C241.591 88.9067 241.611 88.78 241.638 88.62C241.678 88.46 241.725 88.2467 241.778 87.98C241.245 88.66 240.598 89.2 239.838 89.6C239.091 90 238.351 90.2 237.618 90.2ZM238.178 89C238.511 89 238.865 88.9333 239.238 88.8C239.625 88.6667 239.998 88.4867 240.358 88.26C240.718 88.02 241.038 87.74 241.318 87.42C241.611 87.1 241.825 86.7667 241.958 86.42L242.618 83.2C242.565 82.72 242.405 82.2867 242.138 81.9C241.871 81.5133 241.538 81.2 241.138 80.96C240.738 80.72 240.298 80.6 239.818 80.6C239.218 80.6 238.651 80.7467 238.118 81.04C237.585 81.3333 237.105 81.7267 236.678 82.22C236.265 82.7133 235.938 83.26 235.698 83.86C235.458 84.4467 235.338 85.04 235.338 85.64C235.338 86.2533 235.458 86.8133 235.698 87.32C235.938 87.8267 236.265 88.2333 236.678 88.54C237.105 88.8467 237.605 89 238.178 89ZM250.751 90.2C249.151 90.2 248.018 89.68 247.351 88.64C246.698 87.5867 246.531 86.16 246.851 84.36C247.171 82.52 247.598 81.0267 248.131 79.88C248.664 78.72 249.331 77.84 250.131 77.24C250.931 76.6267 251.884 76.2067 252.991 75.98C253.511 75.8733 254.011 75.7933 254.491 75.74C254.984 75.6733 255.418 75.5733 255.791 75.44C256.164 75.2933 256.431 75.0533 256.591 74.72L257.531 75.12C257.398 75.6267 257.144 76.0067 256.771 76.26C256.398 76.5133 255.911 76.7067 255.311 76.84C254.724 76.96 254.018 77.1 253.191 77.26C252.284 77.4333 251.524 77.7333 250.911 78.16C250.311 78.5867 249.811 79.1733 249.411 79.92C249.024 80.6533 248.684 81.58 248.391 82.7C248.858 81.9267 249.458 81.3333 250.191 80.92C250.938 80.4933 251.758 80.28 252.651 80.28C253.598 80.28 254.364 80.4867 254.951 80.9C255.551 81.3133 255.971 81.8867 256.211 82.62C256.451 83.3533 256.498 84.2 256.351 85.16C256.191 86.1733 255.864 87.06 255.371 87.82C254.891 88.5667 254.258 89.1533 253.471 89.58C252.698 89.9933 251.791 90.2 250.751 90.2ZM250.871 89.06C251.991 89.06 252.898 88.7133 253.591 88.02C254.298 87.3133 254.751 86.3867 254.951 85.24C255.124 84.12 254.978 83.2067 254.511 82.5C254.044 81.78 253.264 81.42 252.171 81.42C251.518 81.42 250.904 81.58 250.331 81.9C249.771 82.2067 249.291 82.6467 248.891 83.22C248.504 83.7933 248.244 84.4667 248.111 85.24C247.991 85.92 248.011 86.5533 248.171 87.14C248.344 87.7267 248.658 88.1933 249.111 88.54C249.564 88.8867 250.151 89.06 250.871 89.06ZM257.064 90C257.664 88.2533 258.484 86.5 259.524 84.74C260.564 82.9667 261.884 81.2467 263.484 79.58H264.844L266.404 90H264.984L263.804 80.88C263.138 81.6133 262.531 82.3667 261.984 83.14C261.438 83.9 260.944 84.6667 260.504 85.44C260.078 86.2133 259.684 86.9867 259.324 87.76C258.978 88.52 258.671 89.2667 258.404 90H257.064ZM273.228 90.2C272.228 90.2 271.375 89.9533 270.668 89.46C269.962 88.9533 269.442 88.2933 269.108 87.48C268.788 86.6667 268.695 85.78 268.828 84.82C268.935 84.0733 269.155 83.38 269.488 82.74C269.835 82.0867 270.275 81.5133 270.808 81.02C271.342 80.5133 271.942 80.12 272.608 79.84C273.288 79.5467 274.002 79.4 274.748 79.4C275.748 79.4 276.602 79.6533 277.308 80.16C278.015 80.6533 278.535 81.3067 278.868 82.12C279.202 82.9333 279.302 83.8333 279.168 84.82C279.075 85.54 278.855 86.2267 278.508 86.88C278.175 87.52 277.742 88.0933 277.208 88.6C276.688 89.0933 276.088 89.4867 275.408 89.78C274.728 90.06 274.002 90.2 273.228 90.2ZM273.388 89.06C273.908 89.06 274.408 88.9467 274.888 88.72C275.382 88.4933 275.828 88.18 276.228 87.78C276.628 87.38 276.962 86.9267 277.228 86.42C277.508 85.9 277.688 85.36 277.768 84.8C277.888 84.0133 277.822 83.3 277.568 82.66C277.315 82.0067 276.928 81.4933 276.408 81.12C275.902 80.7333 275.295 80.54 274.588 80.54C274.068 80.54 273.568 80.6533 273.088 80.88C272.608 81.1067 272.162 81.4133 271.748 81.8C271.348 82.1867 271.015 82.64 270.748 83.16C270.482 83.68 270.308 84.24 270.228 84.84C270.122 85.6133 270.195 86.3267 270.448 86.98C270.702 87.62 271.082 88.1267 271.588 88.5C272.108 88.8733 272.708 89.06 273.388 89.06ZM280.438 90L282.638 79.58H283.998L283.018 84.12H288.998L289.938 79.58H291.298L289.098 90H287.738L288.758 85.2H282.798L281.798 90H280.438ZM295.861 90.14C295.087 90.14 294.414 89.9867 293.841 89.68C293.281 89.3733 292.881 88.9133 292.641 88.3C292.414 87.6733 292.387 86.88 292.561 85.92C292.787 84.8667 293.021 83.8133 293.261 82.76C293.514 81.6933 293.761 80.6333 294.001 79.58H295.361C295.121 80.6467 294.874 81.7133 294.621 82.78C294.381 83.8467 294.147 84.9133 293.921 85.98C293.734 87.0333 293.847 87.8067 294.261 88.3C294.687 88.78 295.274 89.02 296.021 89.02C296.727 89.02 297.307 88.8 297.761 88.36C298.227 87.9067 298.507 87.3 298.601 86.54C298.707 85.7667 298.567 85.16 298.181 84.72C297.807 84.28 297.134 84.06 296.161 84.06H293.841L294.021 82.96H296.501C297.127 82.96 297.674 83.0533 298.141 83.24C298.621 83.4133 299.007 83.6667 299.301 84C299.607 84.3333 299.821 84.7267 299.941 85.18C300.061 85.6333 300.081 86.14 300.001 86.7C299.894 87.46 299.647 88.1 299.261 88.62C298.887 89.1267 298.407 89.5067 297.821 89.76C297.247 90.0133 296.594 90.14 295.861 90.14ZM303.281 79.58H304.641L302.421 90H301.061L303.281 79.58Z" fill="white"/>
</svg>
