<svg width="170" height="170" viewBox="0 0 170 170" fill="none" xmlns="http://www.w3.org/2000/svg">
<path d="M76.459 11.1677C80.7627 5.54044 89.2373 5.54044 93.541 11.1677C96.762 15.3792 102.572 16.6142 107.228 14.0769C113.448 10.6866 121.19 14.1336 122.833 21.0247C124.062 26.1823 128.868 29.6738 134.153 29.2493C141.215 28.6822 146.885 34.9801 145.583 41.9437C144.609 47.1555 147.579 52.2997 152.579 54.0616C159.261 56.4157 161.88 64.4756 157.858 70.3075C154.848 74.6723 155.469 80.5798 159.321 84.2234C164.467 89.0917 163.581 97.5199 157.535 101.212C153.01 103.975 151.174 109.624 153.211 114.519C155.933 121.06 151.695 128.399 144.67 129.313C139.412 129.997 135.438 134.411 135.307 139.711C135.133 146.794 128.277 151.775 121.488 149.752C116.406 148.238 110.98 150.654 108.705 155.443C105.665 161.842 97.3759 163.604 91.9962 158.995C87.97 155.545 82.03 155.545 78.0037 158.995C72.6241 163.604 64.3347 161.842 61.295 155.443C59.0201 150.654 53.5936 148.238 48.5123 149.752C41.7229 151.775 34.8668 146.794 34.6926 139.711C34.5623 134.411 30.5877 129.997 25.3298 129.313C18.3047 128.399 14.0674 121.06 16.7888 114.519C18.8257 109.624 16.9901 103.975 12.4649 101.212C6.41865 97.5199 5.53281 89.0917 10.6794 84.2234C14.5312 80.5798 15.1521 74.6723 12.142 70.3075C8.12007 64.4756 10.7389 56.4157 17.4206 54.0616C22.4214 52.2997 25.3914 47.1555 24.4168 41.9437C23.1147 34.9801 28.7854 28.6822 35.8469 29.2493C41.132 29.6738 45.9376 26.1823 47.1671 21.0247C48.8099 14.1336 56.5519 10.6866 62.7723 14.0769C67.4278 16.6142 73.238 15.3792 76.459 11.1677Z" fill="#FF7262"/>
<path d="M47.3675 82.09C46.4675 82.09 45.6695 81.91 44.9735 81.55C44.2775 81.19 43.7015 80.704 43.2455 80.092C42.7895 79.468 42.4715 78.772 42.2915 78.004C42.1115 77.224 42.0755 76.426 42.1835 75.61C42.3035 74.758 42.5735 73.948 42.9935 73.18C43.4135 72.4 43.9415 71.71 44.5775 71.11C45.2135 70.498 45.9275 70.018 46.7195 69.67C47.5115 69.31 48.3455 69.13 49.2215 69.13C50.1335 69.13 50.9315 69.31 51.6155 69.67C52.3115 70.03 52.8815 70.516 53.3255 71.128C53.7815 71.74 54.0995 72.436 54.2795 73.216C54.4595 73.984 54.4955 74.788 54.3875 75.628C54.2675 76.504 53.9975 77.338 53.5775 78.13C53.1695 78.91 52.6475 79.6 52.0115 80.2C51.3755 80.788 50.6615 81.25 49.8695 81.586C49.0775 81.922 48.2435 82.09 47.3675 82.09ZM47.5475 80.956C48.2915 80.956 48.9815 80.806 49.6175 80.506C50.2535 80.194 50.8175 79.786 51.3095 79.282C51.8015 78.766 52.2035 78.19 52.5155 77.554C52.8275 76.918 53.0315 76.27 53.1275 75.61C53.2235 74.878 53.1995 74.194 53.0555 73.558C52.9115 72.91 52.6595 72.34 52.2995 71.848C51.9395 71.356 51.4835 70.972 50.9315 70.696C50.3795 70.42 49.7495 70.282 49.0415 70.282C48.3095 70.282 47.6195 70.432 46.9715 70.732C46.3355 71.032 45.7715 71.44 45.2795 71.956C44.7875 72.46 44.3795 73.03 44.0555 73.666C43.7435 74.302 43.5395 74.95 43.4435 75.61C43.3595 76.306 43.3835 76.978 43.5155 77.626C43.6595 78.262 43.9115 78.832 44.2715 79.336C44.6315 79.828 45.0875 80.224 45.6395 80.524C46.1915 80.812 46.8275 80.956 47.5475 80.956ZM59.7824 82.18C58.3424 82.18 57.3224 81.712 56.7224 80.776C56.1344 79.828 55.9844 78.544 56.2724 76.924C56.5604 75.268 56.9444 73.924 57.4244 72.892C57.9044 71.848 58.5044 71.056 59.2244 70.516C59.9444 69.964 60.8024 69.586 61.7984 69.382C62.2664 69.286 62.7164 69.214 63.1484 69.166C63.5924 69.106 63.9824 69.016 64.3184 68.896C64.6544 68.764 64.8944 68.548 65.0384 68.248L65.8844 68.608C65.7644 69.064 65.5364 69.406 65.2004 69.634C64.8644 69.862 64.4264 70.036 63.8864 70.156C63.3584 70.264 62.7224 70.39 61.9784 70.534C61.1624 70.69 60.4784 70.96 59.9264 71.344C59.3864 71.728 58.9364 72.256 58.5764 72.928C58.2284 73.588 57.9224 74.422 57.6584 75.43C58.0784 74.734 58.6184 74.2 59.2784 73.828C59.9504 73.444 60.6884 73.252 61.4924 73.252C62.3444 73.252 63.0344 73.438 63.5624 73.81C64.1024 74.182 64.4804 74.698 64.6964 75.358C64.9124 76.018 64.9544 76.78 64.8224 77.644C64.6784 78.556 64.3844 79.354 63.9404 80.038C63.5084 80.71 62.9384 81.238 62.2304 81.622C61.5344 81.994 60.7184 82.18 59.7824 82.18ZM59.8904 81.154C60.8984 81.154 61.7144 80.842 62.3384 80.218C62.9744 79.582 63.3824 78.748 63.5624 77.716C63.7184 76.708 63.5864 75.886 63.1664 75.25C62.7464 74.602 62.0444 74.278 61.0604 74.278C60.4724 74.278 59.9204 74.422 59.4044 74.71C58.9004 74.986 58.4684 75.382 58.1084 75.898C57.7604 76.414 57.5264 77.02 57.4064 77.716C57.2984 78.328 57.3164 78.898 57.4604 79.426C57.6164 79.954 57.8984 80.374 58.3064 80.686C58.7144 80.998 59.2424 81.154 59.8904 81.154ZM69.7482 82.18C68.9922 82.18 68.3442 82 67.8042 81.64C67.2642 81.28 66.8502 80.8 66.5622 80.2C66.2862 79.6 66.1482 78.934 66.1482 78.202C66.1482 77.446 66.2922 76.726 66.5802 76.042C66.8682 75.346 67.2642 74.734 67.7682 74.206C68.2842 73.666 68.8782 73.24 69.5502 72.928C70.2342 72.616 70.9662 72.46 71.7462 72.46C72.6102 72.46 73.3122 72.664 73.8522 73.072C74.4042 73.468 74.7642 74.008 74.9322 74.692L73.6722 75.07C73.5162 74.578 73.2522 74.2 72.8802 73.936C72.5202 73.672 72.0822 73.54 71.5662 73.54C71.0382 73.54 70.5222 73.66 70.0182 73.9C69.5262 74.128 69.0822 74.452 68.6862 74.872C68.3022 75.292 67.9902 75.772 67.7502 76.312C67.5222 76.852 67.4082 77.428 67.4082 78.04C67.4082 78.628 67.5102 79.15 67.7142 79.606C67.9302 80.062 68.2242 80.428 68.5962 80.704C68.9802 80.968 69.4122 81.1 69.8922 81.1C70.2762 81.1 70.6602 81.028 71.0442 80.884C71.4402 80.74 71.7942 80.548 72.1062 80.308C72.4182 80.056 72.6462 79.786 72.7902 79.498L73.9242 79.858C73.6722 80.302 73.3242 80.704 72.8802 81.064C72.4362 81.412 71.9442 81.688 71.4042 81.892C70.8642 82.084 70.3122 82.18 69.7482 82.18ZM74.4018 85.042C74.9058 84.958 75.3138 84.844 75.6258 84.7C75.9498 84.568 76.2318 84.37 76.4718 84.106C76.7238 83.842 76.9998 83.482 77.2998 83.026L77.8938 82.144L75.9678 72.622H77.2458L78.7578 80.866L79.4958 79.66C80.0118 78.82 80.4498 78.082 80.8098 77.446C81.1698 76.798 81.4758 76.216 81.7278 75.7C81.9918 75.172 82.2078 74.662 82.3758 74.17C82.5438 73.678 82.7058 73.162 82.8618 72.622H84.0678C83.9118 73.198 83.7378 73.738 83.5458 74.242C83.3658 74.746 83.1378 75.274 82.8618 75.826C82.5978 76.366 82.2618 76.984 81.8538 77.68C81.4578 78.364 80.9598 79.186 80.3598 80.146L78.9018 82.468C78.4938 83.128 78.1158 83.68 77.7678 84.124C77.4198 84.58 77.0778 84.94 76.7418 85.204C76.4178 85.48 76.0818 85.678 75.7338 85.798C75.3858 85.93 74.9958 86.008 74.5638 86.032L74.4018 85.042ZM88.2861 82.18C87.4101 82.18 86.6661 81.964 86.0541 81.532C85.4541 81.088 85.0161 80.506 84.7401 79.786C84.4641 79.054 84.3861 78.268 84.5061 77.428C84.6021 76.804 84.7941 76.216 85.0821 75.664C85.3701 75.112 85.7361 74.632 86.1801 74.224C86.6241 73.804 87.1281 73.48 87.6921 73.252C88.2561 73.024 88.8501 72.91 89.4741 72.91C90.0501 72.91 90.5721 73.024 91.0401 73.252C91.5201 73.468 91.9161 73.768 92.2281 74.152C92.5401 74.524 92.7501 74.956 92.8581 75.448C93.0501 74.128 93.0321 73.078 92.8041 72.298C92.5881 71.506 92.1561 70.924 91.5081 70.552C91.0401 70.276 90.4521 70.102 89.7441 70.03C89.0361 69.958 88.2201 69.958 87.2961 70.03V68.986C88.2681 68.902 89.1561 68.914 89.9601 69.022C90.7761 69.118 91.4781 69.34 92.0661 69.688C92.7021 70.048 93.1941 70.552 93.5421 71.2C93.9021 71.848 94.0821 72.67 94.0821 73.666C94.0821 74.386 94.0161 75.142 93.8841 75.934C93.7521 76.714 93.5301 77.536 93.2181 78.4C92.9661 79.084 92.6121 79.714 92.1561 80.29C91.7001 80.854 91.1481 81.31 90.5001 81.658C89.8521 82.006 89.1141 82.18 88.2861 82.18ZM88.4481 81.172C88.9041 81.172 89.3421 81.076 89.7621 80.884C90.1941 80.692 90.5841 80.428 90.9321 80.092C91.2921 79.756 91.5861 79.366 91.8141 78.922C92.0421 78.466 92.1981 77.986 92.2821 77.482C92.3781 76.81 92.3181 76.204 92.1021 75.664C91.8861 75.124 91.5561 74.698 91.1121 74.386C90.6681 74.062 90.1401 73.9 89.5281 73.9C88.9161 73.9 88.3341 74.056 87.7821 74.368C87.2421 74.68 86.7861 75.106 86.4141 75.646C86.0541 76.186 85.8201 76.804 85.7121 77.5C85.6281 78.184 85.6881 78.808 85.8921 79.372C86.1081 79.924 86.4381 80.362 86.8821 80.686C87.3261 81.01 87.8481 81.172 88.4481 81.172ZM97.4059 82.18C95.9419 82.18 95.2099 81.376 95.2099 79.768C95.2099 79.528 95.2279 79.276 95.2639 79.012C95.2999 78.736 95.3479 78.442 95.4079 78.13L96.5959 72.622H97.8019L96.6859 77.914C96.5659 78.454 96.5059 78.922 96.5059 79.318C96.5059 80.506 97.0219 81.1 98.0539 81.1C98.5099 81.1 98.9659 80.998 99.4219 80.794C99.8779 80.578 100.31 80.278 100.718 79.894C101.138 79.498 101.486 79.042 101.762 78.526L103.022 72.622H104.246L102.608 80.272C102.596 80.344 102.584 80.41 102.572 80.47C102.56 80.53 102.554 80.578 102.554 80.614C102.554 80.818 102.668 80.92 102.896 80.92L102.662 82C102.566 82.012 102.476 82.024 102.392 82.036C102.308 82.048 102.23 82.048 102.158 82.036C101.906 82.024 101.714 81.958 101.582 81.838C101.45 81.706 101.384 81.538 101.384 81.334C101.384 81.274 101.39 81.202 101.402 81.118C101.414 81.022 101.438 80.878 101.474 80.686C101.51 80.494 101.564 80.224 101.636 79.876C101.084 80.596 100.43 81.16 99.6739 81.568C98.9299 81.976 98.1739 82.18 97.4059 82.18ZM106.934 72.622H108.068L107.6 74.746C108.104 74.038 108.698 73.48 109.382 73.072C110.066 72.664 110.756 72.46 111.452 72.46C111.92 72.46 112.316 72.556 112.64 72.748C112.964 72.94 113.204 73.216 113.36 73.576C113.528 73.936 113.606 74.38 113.594 74.908C113.954 74.368 114.344 73.918 114.764 73.558C115.184 73.198 115.634 72.928 116.114 72.748C116.594 72.556 117.068 72.46 117.536 72.46C118.04 72.46 118.442 72.556 118.742 72.748C119.042 72.928 119.264 73.192 119.408 73.54C119.552 73.888 119.624 74.296 119.624 74.764C119.624 75.028 119.606 75.304 119.57 75.592C119.534 75.88 119.48 76.186 119.408 76.51L118.238 82H117.014L118.112 76.762C118.232 76.198 118.292 75.712 118.292 75.304C118.292 74.716 118.172 74.284 117.932 74.008C117.692 73.72 117.338 73.576 116.87 73.576C116.426 73.576 115.988 73.69 115.556 73.918C115.124 74.146 114.722 74.464 114.35 74.872C113.978 75.268 113.666 75.736 113.414 76.276L112.208 82H110.984L112.082 76.762C112.154 76.462 112.202 76.192 112.226 75.952C112.262 75.712 112.28 75.484 112.28 75.268C112.28 74.692 112.16 74.266 111.92 73.99C111.68 73.714 111.326 73.576 110.858 73.576C110.198 73.576 109.55 73.822 108.914 74.314C108.29 74.806 107.78 75.454 107.384 76.258L106.178 82H104.954L106.934 72.622ZM124.573 82.126C123.841 82.126 123.205 81.988 122.665 81.712C122.137 81.436 121.753 81.022 121.513 80.47C121.285 79.906 121.255 79.192 121.423 78.328C121.627 77.38 121.837 76.432 122.053 75.484C122.281 74.524 122.503 73.57 122.719 72.622H123.943C123.727 73.582 123.505 74.542 123.277 75.502C123.061 76.462 122.851 77.422 122.647 78.382C122.527 79.006 122.545 79.522 122.701 79.93C122.857 80.338 123.109 80.638 123.457 80.83C123.817 81.022 124.237 81.118 124.717 81.118C125.461 81.118 126.067 80.92 126.535 80.524C127.015 80.116 127.303 79.57 127.399 78.886C127.507 78.19 127.375 77.644 127.003 77.248C126.631 76.852 125.971 76.654 125.023 76.654H122.575L122.737 75.664H125.329C125.929 75.664 126.451 75.748 126.895 75.916C127.351 76.072 127.717 76.3 127.993 76.6C128.281 76.9 128.479 77.254 128.587 77.662C128.707 78.07 128.731 78.526 128.659 79.03C128.551 79.714 128.311 80.29 127.939 80.758C127.567 81.214 127.093 81.556 126.517 81.784C125.953 82.012 125.305 82.126 124.573 82.126ZM52.6624 104L54.6424 94.622H62.1664L60.1684 104H58.9444L60.7264 95.594H55.6504L53.8864 104H52.6624ZM64.6239 94.622H65.7039L65.3259 96.44C65.8059 95.852 66.3759 95.378 67.0359 95.018C67.7079 94.646 68.3799 94.46 69.0519 94.46C69.7479 94.46 70.3419 94.646 70.8339 95.018C71.3379 95.378 71.7219 95.858 71.9859 96.458C72.2499 97.058 72.3819 97.706 72.3819 98.402C72.3819 99.134 72.2439 99.848 71.9679 100.544C71.6919 101.228 71.3139 101.846 70.8339 102.398C70.3539 102.95 69.8019 103.388 69.1779 103.712C68.5539 104.024 67.8879 104.18 67.1799 104.18C66.4359 104.18 65.8179 103.976 65.3259 103.568C64.8339 103.16 64.4799 102.656 64.2639 102.056L63.0399 107.834H61.8159L64.6239 94.622ZM67.0719 103.1C67.6119 103.1 68.1219 102.968 68.6019 102.704C69.0939 102.44 69.5259 102.092 69.8979 101.66C70.2699 101.228 70.5639 100.742 70.7799 100.202C70.9959 99.662 71.1039 99.128 71.1039 98.6C71.1039 98.036 70.9959 97.526 70.7799 97.07C70.5759 96.602 70.2819 96.23 69.8979 95.954C69.5139 95.678 69.0579 95.54 68.5299 95.54C68.2419 95.54 67.9239 95.6 67.5759 95.72C67.2399 95.84 66.9039 96.014 66.5679 96.242C66.2439 96.458 65.9559 96.704 65.7039 96.98C65.4519 97.256 65.2659 97.55 65.1459 97.862L64.5339 100.742C64.6179 101.186 64.7739 101.588 65.0019 101.948C65.2419 102.296 65.5359 102.578 65.8839 102.794C66.2439 102.998 66.6399 103.1 67.0719 103.1ZM77.8498 104.18C76.9498 104.18 76.1818 103.958 75.5458 103.514C74.9098 103.058 74.4418 102.464 74.1418 101.732C73.8538 101 73.7698 100.202 73.8898 99.338C73.9858 98.666 74.1838 98.042 74.4838 97.466C74.7958 96.878 75.1918 96.362 75.6718 95.918C76.1518 95.462 76.6918 95.108 77.2918 94.856C77.9038 94.592 78.5458 94.46 79.2178 94.46C80.1178 94.46 80.8858 94.688 81.5218 95.144C82.1578 95.588 82.6258 96.176 82.9258 96.908C83.2258 97.64 83.3158 98.45 83.1958 99.338C83.1118 99.986 82.9138 100.604 82.6018 101.192C82.3018 101.768 81.9118 102.284 81.4318 102.74C80.9638 103.184 80.4238 103.538 79.8118 103.802C79.1998 104.054 78.5458 104.18 77.8498 104.18ZM77.9938 103.154C78.4618 103.154 78.9118 103.052 79.3438 102.848C79.7878 102.644 80.1898 102.362 80.5498 102.002C80.9098 101.642 81.2098 101.234 81.4498 100.778C81.7018 100.31 81.8638 99.824 81.9358 99.32C82.0438 98.612 81.9838 97.97 81.7558 97.394C81.5278 96.806 81.1798 96.344 80.7118 96.008C80.2558 95.66 79.7098 95.486 79.0738 95.486C78.6058 95.486 78.1558 95.588 77.7238 95.792C77.2918 95.996 76.8898 96.272 76.5178 96.62C76.1578 96.968 75.8578 97.376 75.6178 97.844C75.3778 98.312 75.2218 98.816 75.1498 99.356C75.0538 100.052 75.1198 100.694 75.3478 101.282C75.5758 101.858 75.9178 102.314 76.3738 102.65C76.8418 102.986 77.3818 103.154 77.9938 103.154ZM88.5502 104.18C87.6742 104.18 86.9362 103.97 86.3362 103.55C85.7482 103.118 85.3222 102.554 85.0582 101.858C84.7942 101.15 84.6982 100.382 84.7702 99.554C84.8422 98.882 85.0222 98.24 85.3102 97.628C85.5982 97.016 85.9762 96.476 86.4442 96.008C86.9242 95.528 87.4762 95.15 88.1002 94.874C88.7362 94.598 89.4202 94.46 90.1522 94.46C90.6682 94.46 91.1602 94.556 91.6282 94.748C92.1082 94.928 92.4982 95.21 92.7982 95.594C93.0982 95.966 93.2542 96.428 93.2662 96.98C93.2782 97.892 92.8882 98.594 92.0962 99.086C91.3042 99.578 90.0562 99.824 88.3522 99.824C87.8962 99.824 87.4162 99.818 86.9122 99.806C86.4082 99.782 85.8502 99.746 85.2382 99.698L85.5622 98.762C86.1022 98.798 86.5942 98.828 87.0382 98.852C87.4822 98.864 87.9202 98.87 88.3522 98.87C89.2882 98.87 90.0202 98.792 90.5482 98.636C91.0882 98.48 91.4662 98.264 91.6822 97.988C91.9102 97.7 92.0122 97.37 91.9882 96.998C91.9762 96.662 91.8682 96.38 91.6642 96.152C91.4722 95.924 91.2262 95.756 90.9262 95.648C90.6262 95.54 90.3022 95.486 89.9542 95.486C89.4382 95.486 88.9462 95.594 88.4782 95.81C88.0222 96.026 87.6142 96.326 87.2542 96.71C86.8942 97.082 86.6002 97.514 86.3722 98.006C86.1442 98.498 86.0122 99.014 85.9762 99.554C85.9162 100.238 85.9822 100.856 86.1742 101.408C86.3662 101.948 86.6782 102.374 87.1102 102.686C87.5542 102.998 88.1002 103.154 88.7482 103.154C89.1562 103.154 89.5222 103.094 89.8462 102.974C90.1822 102.854 90.4702 102.71 90.7102 102.542C90.9622 102.362 91.1602 102.188 91.3042 102.02C91.4482 101.852 91.5442 101.72 91.5922 101.624L92.6722 101.984C92.6122 102.092 92.4862 102.266 92.2942 102.506C92.1022 102.746 91.8322 102.992 91.4842 103.244C91.1482 103.496 90.7342 103.718 90.2422 103.91C89.7622 104.09 89.1982 104.18 88.5502 104.18ZM94.2523 104L96.2323 94.622H97.4563L96.5743 98.726H97.9783C98.6743 98.306 99.3163 97.742 99.9043 97.034C100.492 96.314 101.068 95.51 101.632 94.622H102.946C102.286 95.654 101.632 96.554 100.984 97.322C100.348 98.09 99.6763 98.714 98.9683 99.194L101.542 104H100.192L97.9063 99.698H96.3583L95.4583 104H94.2523ZM104.983 94.622H106.117L105.649 96.746C106.153 96.038 106.747 95.48 107.431 95.072C108.115 94.664 108.805 94.46 109.501 94.46C109.969 94.46 110.365 94.556 110.689 94.748C111.013 94.94 111.253 95.216 111.409 95.576C111.577 95.936 111.655 96.38 111.643 96.908C112.003 96.368 112.393 95.918 112.813 95.558C113.233 95.198 113.683 94.928 114.163 94.748C114.643 94.556 115.117 94.46 115.585 94.46C116.089 94.46 116.491 94.556 116.791 94.748C117.091 94.928 117.313 95.192 117.457 95.54C117.601 95.888 117.673 96.296 117.673 96.764C117.673 97.028 117.655 97.304 117.619 97.592C117.583 97.88 117.529 98.186 117.457 98.51L116.287 104H115.063L116.161 98.762C116.281 98.198 116.341 97.712 116.341 97.304C116.341 96.716 116.221 96.284 115.981 96.008C115.741 95.72 115.387 95.576 114.919 95.576C114.475 95.576 114.037 95.69 113.605 95.918C113.173 96.146 112.771 96.464 112.399 96.872C112.027 97.268 111.715 97.736 111.463 98.276L110.257 104H109.033L110.131 98.762C110.203 98.462 110.251 98.192 110.275 97.952C110.311 97.712 110.329 97.484 110.329 97.268C110.329 96.692 110.209 96.266 109.969 95.99C109.729 95.714 109.375 95.576 108.907 95.576C108.247 95.576 107.599 95.822 106.963 96.314C106.339 96.806 105.829 97.454 105.433 98.258L104.227 104H103.003L104.983 94.622Z" fill="white"/>
</svg>
